/* XPM */
static char *c6e6b86749084ef5bcaa458109467b650APOinH0NC1rfSKL[] = {
/* columns rows colors chars-per-pixel */
"65 65 224 2 ",
"   c None",
".  c #020202",
"X  c #0C0B05",
"o  c #090703",
"O  c #120C04",
"+  c #151106",
"@  c #1A1105",
"#  c #1C1909",
"$  c #221A07",
"%  c #261907",
"&  c #27230B",
"*  c #342C0D",
"=  c #3B2409",
"-  c #3E330E",
";  c #312F10",
":  c #393412",
">  c #432A0B",
",  c #4A3510",
"<  c #443812",
"1  c #5E3F10",
"2  c #50370C",
"3  c #683F0B",
"4  c #753A05",
"5  c #534412",
"6  c #5D4613",
"7  c #484215",
"8  c #674C15",
"9  c #6C5A18",
"0  c #755619",
"q  c #795817",
"w  c #62440B",
"e  c #6F611C",
"r  c #746318",
"t  c #7B5E22",
"y  c #7E7325",
"u  c #726A23",
"i  c #844A0A",
"p  c #864505",
"a  c #8A510B",
"s  c #91540A",
"d  c #99580B",
"f  c #874F10",
"g  c #845B15",
"h  c #845D19",
"j  c #8C5F17",
"k  c #945D10",
"l  c #86621D",
"z  c #8D641D",
"x  c #8B661B",
"c  c #926514",
"v  c #9B6B15",
"b  c #956B1C",
"n  c #9C6E1C",
"m  c #966915",
"M  c #89721D",
"N  c #9E7415",
"B  c #9E731C",
"V  c #98761E",
"C  c #AA680D",
"Z  c #A46C15",
"A  c #A66A14",
"S  c #A37515",
"D  c #AD7C15",
"F  c #A3741C",
"G  c #A57B1D",
"H  c #AB7B1C",
"J  c #A77617",
"K  c #B27D1C",
"L  c #B47C14",
"P  c #B66D11",
"I  c #856722",
"U  c #857827",
"Y  c #9D7222",
"T  c #9B7926",
"R  c #A47522",
"E  c #A47C23",
"W  c #AB7C22",
"Q  c #A57E29",
"!  c #B27E23",
"~  c #C27911",
"^  c #AD831C",
"/  c #AB871B",
"(  c #B48417",
")  c #B4831C",
"_  c #BA841D",
"`  c #B58B1D",
"'  c #BA8C1D",
"]  c #B58A17",
"[  c #BD931D",
"{  c #8F822A",
"}  c #998429",
"|  c #AD8323",
" . c #AE8921",
".. c #A68228",
"X. c #AC852B",
"o. c #A88727",
"O. c #B38424",
"+. c #BA8622",
"@. c #B48B23",
"#. c #BB8C24",
"$. c #B28529",
"%. c #B48C2A",
"&. c #BB8D29",
"*. c #AA9628",
"=. c #B59326",
"-. c #BD9324",
";. c #B4922B",
":. c #BD932B",
">. c #B59A2C",
",. c #BC9A2B",
"<. c #BD9D27",
"1. c #BF8F30",
"2. c #AE9B30",
"3. c #B79331",
"4. c #BD9831",
"5. c #BFA32C",
"6. c #B8A736",
"7. c #C58B18",
"8. c #C3911E",
"9. c #C9981F",
"0. c #D39E1F",
"q. c #D18A19",
"w. c #EE9B19",
"e. c #F3A519",
"r. c #C38D25",
"t. c #C28E2A",
"y. c #C49324",
"u. c #C99524",
"i. c #C29B25",
"p. c #CC9B25",
"a. c #C3932B",
"s. c #CA962B",
"d. c #C49B2C",
"f. c #CB9C2C",
"g. c #D19E26",
"h. c #D29D2D",
"j. c #DA9A26",
"k. c #C59D31",
"l. c #CC9C31",
"z. c #C69730",
"x. c #D29E32",
"c. c #E69B20",
"v. c #CCA424",
"b. c #C6A22C",
"n. c #CCA32D",
"m. c #CCAB2C",
"M. c #D3A425",
"N. c #D5A42C",
"B. c #D9A52C",
"V. c #D4AA2D",
"C. c #DBAB2C",
"Z. c #D9AB25",
"A. c #DCB22D",
"S. c #D7B72B",
"D. c #C7A433",
"F. c #CDA432",
"G. c #CDAA33",
"H. c #CBA839",
"J. c #D4A333",
"K. c #DAA535",
"L. c #D3AC33",
"P. c #DCAB33",
"I. c #DDAA38",
"U. c #D3A83B",
"Y. c #CBB638",
"T. c #D5B231",
"R. c #DCB333",
"E. c #D6B936",
"W. c #DCBB34",
"Q. c #D4B538",
"!. c #DBB43A",
"~. c #D7BB3B",
"^. c #DDBB3B",
"/. c #CCB02B",
"(. c #E2AE2C",
"). c #E4A72C",
"_. c #E3B22E",
"`. c #E3BF2D",
"'. c #F2B925",
"]. c #E2AE34",
"[. c #E2AD39",
"{. c #E4B333",
"}. c #E9B635",
"|. c #E3BB34",
" X c #EBB936",
".X c #E4B33A",
"XX c #E9B63B",
"oX c #E3BC3B",
"OX c #EDBC3C",
"+X c #F0BE3E",
"@X c #DEC13B",
"#X c #DCC237",
"$X c #E6C52C",
"%X c #E6C327",
"&X c #E4C334",
"*X c #EBC336",
"=X c #E5C33B",
"-X c #EBC33C",
";X c #E6CA3B",
":X c #EBCB3C",
">X c #EBCC34",
",X c #F1C33D",
"<X c #F2CB3C",
"1X c #EBD338",
"2X c #F1D536",
"3X c #DDB640",
"4X c #EDBD40",
"5X c #E4B942",
"6X c #F1BF40",
"7X c #DCC343",
"8X c #E4C440",
"9X c #EAC341",
"0X c #ECCB42",
"qX c #F3C342",
"wX c #F3CD42",
"eX c #EDD444",
"rX c #EAD548",
"tX c #F2D443",
"yX c #F5DC45",
"uX c #F3DB4A",
"iX c #F9DE49",
"pX c #FBDC46",
"aX c #F6E648",
"sX c #F7EF50",
/* pixels */
"                                                                                                                                  ",
"                                                                                                                                  ",
"                                                                                                                                  ",
"                                        z I I I t 8 6                                                                             ",
"                                      O.n Y Q Q T l h R t.                                                                        ",
"                                f.f.P.a.! &.a.J.K.O.t.a.a.I z                                                                     ",
"                            B.h.s.&.E $.R n +.&.f.s.f.O.&.$.$.q                                                                   ",
"                          OXh.s.a.&.z W b x F R ! :.:.F +.a.t.l F                                                                 ",
"                        yXOXa.&.&.J.$.O.W | F W b E E H H B t.H B W                                                               ",
"                      <XwX.Xs.t.O.&.! #.a.&.F &.%.:.:.| ^ $.a.r.#.O.                                                              ",
"                    iX,XOXP.J.h.O.S J a.K.+.J f.|.R.P.X.O.L.f.p.h.#.E                                                             ",
"                  yX,X XC.OX!.J.#.J ' J.I.n D y.V.n.B.#.F B.K.B.h.u.b                                                             ",
"                  :X{._.C.9X.X.Xp.( y.l.k.h v #.y.f.C.B.@.&.J.B.g.p.G                                                             ",
"                tX{.B.(.{.OX.X-XB.9.y.+.O.h q _ ' n.{.|.V.V p.M.g.g.u.q                                                           ",
"              <X,X_.C.C.(.OX{.R.p.' #._ c ^ l s.f.f.u.|.p.b J.B.g.g.N.F                                                           ",
"              *X{._.(.C.(.}.].J.M.( +._ g #.| K.P.g.' A.u.G J.].N.N.P.r.                                                          ",
"            _.{.Z.{._.(.(.P.{.P.{._ +._ v B P.XX].M.g.B.B.f.s.{.P.B.P.h.                                                          ",
"            _.B._. X X{.{.J.N.h.P.#.+.K H F f.{.{.C.C.].{.B.x.l.].B.P.h.}.OXP.h.&.z.$.z                                           ",
"            B.d.}.,XOX}.].x.s.s.x.r.+.K ) W :.{.XX[.{.OXOXP.P.:.P.P.[.h.}.}.P.J.a.z.$.b g m                                       ",
"          J.:.;.}.OXOX{.K.K.J.h.h.t.r.a.&.#.K.OXOXXXOX+X+XXXXXI.F..XXXh.{.P..X.Xx.a.O.W F v b 1                                   ",
"          f.k.F.}.OXOX.XK.P.P.K.h.a.+.a.a.s..X+XXXOX+XqX6XOXOXOXL..XXXj.]..X4XL.f.O.! ! O.Z n h R                                 ",
"          k.OX,XOXOXOXOX.XK.K.P.h.y.! t.a.J.I.6X.X4XqXqXqX+XOX+X.X[.XXc.{.qX9Xa.r.H H O.| F H O.$.0 Y                             ",
"          F.OX X}.{.{.OX[.f.&.a.f.a.s.l.z.J.K.[.I.OXqX6XqXqXqXOXOX.XXXw.!.wXOXu.h.#.v &.v v W O.&.Y W 6                           ",
"          !.XXB.].P.P.XX].l.&.r.h.f.x.J.x.K.K.K.K.OXqXqXqXqXqXOXXX}.).w.=X<XOXV.B.y.v #.S Z ! &.a.&.t.q :.                        ",
"          3X.Xu.h.K.h.P.K.J.J.h.N.K.l.x.K.I.I.J.I.XXOXqXqXOXqXOX[.].q.e.<X*XOXR.B.' D ( 8.) O.p.f.J.J.@.%.W                       ",
"          H.5XN.J.J.h.J.K.K..XJ.h.P.l.J.[.[.K.K.[..X4X4XOXOX+X}.B.C.q.'.*XC.OXoXB._ D ` f.#.H #.u.h..Xu.J.$.h                     ",
"          3.U.J.K.x.x.x.K.P.OXK.u.P.J.J..X.XK.K..XXXqXOX}.+XOX}.C.p.~ '.A.M.-XoXR.' D ' f.#.v Z _ s..XB.OX&.b                     ",
"          X.X.| x.x.x.x.P..XqX].y.P.OXJ..X4X[.K.[.XX+XOX{.+X}.}.R.C C $XM.R.-X-X{.u.( _ p.O.k k v -.f.}.-Xy.) F                   ",
"          x G F %.f.x.x.K.P.,XN.8.p..XP.K..XK.K.I..XOX+X.X X Xg.H s 7.>XM.R.*X<X|.p.v H #.J c m B y.f..X-XN.p.O.                  ",
"          w D H Q s.J.J.x.N.,Xh.p.' h.[.h.K.K.K.K..X6X+XOX{.].K 4 s S.1XM.A.*X>XC.p.c G H m N G O.a.p.P.-X{.A.u.+.                ",
"            J 8.J.a.h.J.f.K.OX.XP.u.N.N.f.x.K.K.[.OXqXqXOX(.K i p L %X>Xu.|.|.*X@.R.n.d.D N N ^ :.O.n.V.|.{.|.p.F                 ",
"            8 y.XXf.f.f.f.K.XXOX[.N.K.h.h.l.J.K..XqXqXqX].r.a 4 C Z.2X1XV.|.p.f.@.W.R.n.) ^ ^ @.d.W -.V.{._.R.B.S                 ",
"            @ E {.P.l.&.l.x..X[.K.B.].J.x.l.x.I.XX6XqX4Xr.k 4 i 0.2XsXyX*XC.R b n.L.d.=.@.-.-.#.a.X.E P.R.A.M.V.D H               ",
"            o < &..XK.y.#.a.x.N.r.u.h.s.s.f.s.K.XX6XI.R A i p J A.>XeXW.@.d.W | d.,.%.#.a.y.O.a.J.Q.=.@XB.A.Z. .( S               ",
"              o 0 X.x.p.+.a.a.u._ r.r.r.r.h.s.x.l.1.! f s i J v.>X:X=Xd.x ;.E %.O.@.X.a.k.a.| k.!.0Xp.E.u.B.C.G ^ F               ",
"              o + * E s.f.s.y.+.+.r.) ! K x.h.t.I , i C a d Z.$XaXaX:X;.T &.l E B &.H D.F.a.d.L.oX^.u.#.#.y.M.i.S ) E             ",
"                . o , 8 0 b H K r.r.J c g 0 z h > = d C S p.&X`.1XaX:X| X.:.l @.W #.$.J.F.J.d.L.oXL.y.#.#.-.8.i.S #.@.            ",
"                  . . . @ 2 q h n b g 3 > @ = > @ 3 ~ L p.2X=XA.&XtXoX| &.d.Y n.-.O.:.F.F.!.l.J.G.,.d.a.y.-.( [ S ` @.            ",
"                    . . . O @ $ % % $ @ O o O O % P M.&X-X=XR.|.$X|.4.n.%.D.&.l.p.@.:.k.L.!.!.f...G F.d.n.[ ] ' N J `             ",
"                      . . . . . . . . . . . . . % _ -XyX-X=XP.=XA.oX3.L...:.a.:.n.) f.J.!.^.!.f.| :.F.s.n.[ ' ' | ^ i.            ",
"                        . . . . . . . . . . o o   U rXeXR.;XR.^.l.oX4.k.T %.-.$.d.) P.R.^.!.L.G.d.W.p.a.d.-.y.' d.-.G.            ",
"                                                  : 7XeXR.A.=Xn.^ G.%.z...d.-.&.E -..Xk.b.$.F.~.-.:.y.#.@.i.p.u.b.i.>.            ",
"                                                  X 6.:XR.V.E.i./ G.,.a.E :.#.$...y.C.d.i.E F.~.-.$.-.` ` p.V.a.G.n.M             ",
"                                                  X U oXC.R.>.y.i.|.T.:.E E | R D.-.v.L.G.d.J.L.n.d.<.` i.V.R.;.E.W.5             ",
"                                                  X < V.C.|.d.n.v.m. .:.:.:.,.$.d.n.V.L.T.^.n.L.n.n.n.b.T.R.^.L.Q.;X              ",
"                                                    o V V.OXB.Q.v.=.V d.D.F.L.d.:.R.W.L.W.=XF.P.n.n.R.R.|.=X!.8XL./.              ",
"                                                    . & b. XP.Q.<./ n.G.| &.n.k.G./.T.^.=Xd.L.n.L.b.=XoXoX=XH.=XL.9               ",
"                                                    . . 9 R.R.R. .^ V.E.-.| D.G.G./.W.;XT.a.n.n.b.G.-XoXoX9X7XoXL.*               ",
"                                                      . + =.A.|.^ [ m.#XR.=.G.R.b.m.W.=Xd.V.a.f.i.!.oXR.oXrXuXoX2.#               ",
"                                                      . . - b.:XL.R.:XL.;X#X@XW.m.i.@.V.L.R.d.n.L..X.X^.^.aX^.@X<                 ",
"                                                        . . r 5.&X|.eXR.;X;X&XT.d.@.^ p.R.R.d.b.!.oXoXoX8XuXG.{ O                 ",
"                                                        . . O 9 b.V.=XtX&XR.V.n.@.^ y.n.M.L.-.-.L.0XtXoX8X!.2.#                   ",
"                                                          . . $ 5 ;.;XpXtX-XW.R.p.d.n.L.T.L.:.G G.8XeXk.^.I 7 .                   ",
"                                                            . . o e 2.~.iXyX0X0XoXR.R.R.T.L.,.G G.~.@XT } * .                     ",
"                                                              . . + & y rXuXtXuXtX=X=XR.n.F.d.5.L.D.,.5 $ X o                     ",
"                                                                . . . * u y } Y.rXyXtX:XT.G.d.*.M 9 6 $ . .                       ",
"                                                                . . . . . o * U 6.Y.Y.Y.>.o.} r * @ o . .                         ",
"                                                                    o . . . X & ; : : : * * & # X o . .                           ",
"                                                                      . o . . . . . . . . . . . . . .                             ",
"                                                                          o o o o o . . . o . . .                                 ",
"                                                                                                                                  ",
"                                                                                                                                  ",
"                                                                                                                                  ",
"                                                                                                                                  ",
"                                                                                                                                  "
};
