/* XPM */
static char *result[] = {
/* columns rows colors chars-per-pixel */
"64 55 162 2 ",
"   c #650000",
".  c #6C0200",
"X  c #730500",
"o  c #7A0500",
"O  c #760B00",
"+  c #7C0A00",
"@  c #751400",
"#  c #7B1300",
"$  c #761A00",
"%  c #7C1D00",
"&  c #7D2100",
"*  c #810600",
"=  c #840D00",
"-  c #8B0D00",
";  c #910D00",
":  c #831300",
">  c #8C1200",
",  c #841C00",
"<  c #8A1B00",
"1  c #931500",
"2  c #9B1500",
"3  c #941A00",
"4  c #9C1C00",
"5  c #A71500",
"6  c #AF1700",
"7  c #A31C00",
"8  c #AB1D00",
"9  c #B51D00",
"0  c #832100",
"q  c #8B2400",
"w  c #8D2900",
"e  c #932400",
"r  c #9C2300",
"t  c #942A00",
"y  c #9C2A00",
"u  c #933000",
"i  c #9C3100",
"p  c #A42400",
"a  c #AB2400",
"s  c #A42C00",
"d  c #AC2B00",
"f  c #B12600",
"g  c #BD2200",
"h  c #B32C00",
"j  c #BB2D00",
"k  c #A23400",
"l  c #AC3100",
"z  c #A53A00",
"x  c #AE3E00",
"c  c #B43300",
"v  c #BC3300",
"b  c #B43D00",
"n  c #BC3B00",
"m  c #C22700",
"M  c #C62800",
"N  c #C33400",
"B  c #CA3600",
"V  c #C43B00",
"C  c #CC3B00",
"Z  c #D23D00",
"A  c #B04300",
"S  c #BD4200",
"D  c #BC4A00",
"F  c #C44100",
"G  c #CB4300",
"H  c #C34C00",
"J  c #CD4B00",
"K  c #D34400",
"L  c #DB4500",
"P  c #D44B00",
"I  c #DB4C00",
"U  c #CE5200",
"Y  c #CE5B00",
"T  c #D55400",
"R  c #DC5200",
"E  c #D45C00",
"W  c #DD5C00",
"Q  c #E04200",
"!  c #E34D00",
"~  c #F34E00",
"^  c #E35500",
"/  c #EB5500",
"(  c #E55A00",
")  c #EC5C00",
"_  c #F25D00",
"`  c #CD6600",
"'  c #CF6C00",
"]  c #D56300",
"[  c #DB6300",
"{  c #D46D00",
"}  c #DC6A00",
"|  c #DE7400",
" . c #D47900",
".. c #DC7D00",
"X. c #E36200",
"o. c #EC6300",
"O. c #E26B00",
"+. c #EB6B00",
"@. c #F36400",
"#. c #FB6300",
"$. c #F36C00",
"%. c #FC6D00",
"&. c #E37300",
"*. c #EB7400",
"=. c #E67900",
"-. c #EC7E00",
";. c #F37300",
":. c #FD7400",
">. c #F47B00",
",. c #FE7C00",
"<. c #E68100",
"1. c #ED8200",
"2. c #E28800",
"3. c #EC8C00",
"4. c #F38400",
"5. c #FE8400",
"6. c #F48B00",
"7. c #FE8C00",
"8. c #E39000",
"9. c #ED9500",
"0. c #E59C00",
"q. c #EB9F00",
"w. c #F59400",
"e. c #FE9300",
"r. c #F49900",
"t. c #FE9C00",
"y. c #EDAF00",
"u. c #F6A300",
"i. c #FEA400",
"p. c #F7A800",
"a. c #FFAC00",
"s. c #F5B000",
"d. c #FEB400",
"f. c #F6BC00",
"g. c #FEBB00",
"h. c #FFAC14",
"j. c #FFC401",
"k. c #FFCB01",
"l. c #FFD301",
"z. c #FFDB01",
"x. c #FFD409",
"c. c #FFDD0B",
"v. c #FFCB1B",
"b. c #FFE302",
"n. c #FFEC03",
"m. c #FFE20A",
"M. c #FFF303",
"N. c #FFFD04",
"B. c #FFF60B",
"V. c #FFF908",
"C. c #FFEE11",
"Z. c #FFE61B",
"A. c #FFFB14",
"S. c #FFDE22",
"D. c #FFC33E",
"F. c #FFD44E",
"G. c #FFD25A",
"H. c #FFF753",
"J. c #FFFB7D",
"K. c #FFFFBB",
"L. c #FFFFE3",
"P. c None",
/* pixels */
"P.P.P.P.P.P.P.P.P.P.P.P.P.P.P.P.*.w.i.g.j.j.j.j.g.a.u.P.P.P.P.P.P.P.P.P.P.P.P.P.P.P.P.P.P.P.P.P.P.P.P.P.P.P.P.P.P.P.P.P.P.P.P.P.",
"P.P.P.P.P.P.P.P.P.P.P.P.P.&.d.z.n.M.M.M.n.n.b.z.z.c.Z.S.x.j.g.u.P.P.P.P.P.P.P.P.P.P.P.P.P.P.P.P.P.P.P.P.P.P.P.P.P.P.P.P.P.P.P.P.",
"P.P.P.P.P.P.P.P.P.P.P.} j.n.N.N.N.N.n.b.b.z.z.l.k.k.c.H.K.L.K.c.j.j.a.P.P.P.P.P.P.P.P.P.P.P.P.P.P.P.P.P.P.P.P.P.P.P.P.P.P.P.P.P.",
"P.P.P.P.P.P.P.P.P.c w.b.N.N.N.M.n.b.z.z.l.k.k.k.g.g.d.g.g.j.j.k.j.g.g.g.g.P.P.P.P.P.P.P.P.P.P.P.P.P.P.P.P.P.P.P.P.P.P.P.P.P.P.P.",
"P.P.P.P.P.P.P.P.s r.n.N.N.M.n.b.z.z.l.m.j.g.d.d.a.a.a.i.i.a.i.a.a.a.a.d.a.d.d.d.P.P.P.P.P.P.P.P.P.P.P.P.P.P.P.P.P.P.P.P.P.P.P.P.",
"P.P.P.P.P.P.P.y 4.n.N.N.M.b.b.z.l.l.n.j.g.d.i.i.d.i.t.t.d.g.t.t.t.e.t.e.t.t.i.i.d.d.P.P.P.P.P.P.P.P.P.P.P.P.P.P.P.P.P.P.P.P.P.P.",
"P.P.P.P.P.P.j D j.N.N.n.b.z.z.l.l.n.j.g.a.a.a.j.m.a.d.a.7.7.7.7.7.7.7.5.5.5.7.7.e.t.a.d.P.P.P.P.P.P.P.P.P.P.P.P.P.P.P.P.P.P.P.P.",
"P.P.P.P.P.N 0 7.M.N.n.z.l.l.l.A.m.z.k.j.j.m.k.d.i.j.e.5.7.d.g.z.i.5.5.,.,.,.7.,.,.5.e.t.a.P.P.P.P.P.P.P.P.P.P.P.P.P.P.P.P.P.P.P.",
"P.P.P.P.d d i a.N.n.z.l.k.k.l.n.A.B.A.l.l.x.a.C.g.7.x.x.B.t.i.5.,.,.g.7.l.e.:.:.:.:.:.5.t.t.d.P.P.P.P.P.P.P.P.P.P.P.P.P.P.P.P.P.",
"P.P.P.P.Z , T j.N.b.l.k.j.z.B.M.V.B.n.x.a.d.d.x.k.a.m.k.c.,.B.7.d.t.t.x.j.;.+.$.%.,.,.:.%.7.t.i.P.P.P.P.P.P.P.P.P.P.P.P.P.P.P.P.",
"P.P.P.f N % o.k.M.l.j.g.l.b.V.n.j.g.a.t.5.5.c.e.g.@.@.@.%.u.d.M.%.d.j.x.4.&.O.O.o.$.,.,.:.@.:.t.e.d.P.P.P.P.P.P.P.P.P.P.P.P.P.P.",
"P.P.P.B d % @.k.n.k.d.a.x.j.b.g.d.a.t.5.:.@.@.) ( ^ ^ R R R R ) d.+.d.>.l.m.3.{ ] X.$.,.5.:.) o.e.e.a.P.P.P.P.P.P.P.P.P.P.P.P.P.",
"P.P.7 Z r 0 ) j.b.g.a.t.t.l.i.i.t.7.5.:.o.^ P F F F F C C T w.W G V J } x.r.m.m.} E W @.,.,.%.^ R ,.e.e.P.P.P.P.P.P.P.P.P.P.P.P.",
"P.P.h Z r 0 ^ d.b.i.e.5.t.;.P V P.P.P.P.P.P.r p p 4 h T J j h h h c c F u.3.D c.7.f.[ X.%.:.:.@.P K ;.7.7.P.P.P.P.P.P.P.P.P.P.P.",
"P.: M C e 0 L i.n.7.$.J P.P.P.P.P.P.P.P.P.P.P.P.P.P.P.+ = : 1 7 c T &.J c b J b.9.} b.r.d.@.%.@.^ V V +.5.5.g.P.P.P.P.P.P.P.P.P.",
"P.2 C C r % V ;.n.P.P.P.P.P.P.P.P.P.P.P.P.P.P.P.P.P.P.P.P.P.P.3 - - n } 1.&.P [ f.f.| =.a.o.+.e.) G c j ( 5.,.j.P.P.P.P.P.P.P.P.",
"P.7 B Z p % l P j.P.P.P.P.P.P.P.P.P.P.P.P.P.P.P.P.P.P.P.P.P.P.P.P.O = d ] r.-.P b z ` l.O.l.o.z.@.L v s d ( ,.>.j.P.P.P.P.P.P.P.",
"P.a C Z p % e K w.z.P.P.P.P.P.P.P.P.P.P.P.P.P.P.P.P.P.P.P.P.P.P.P.P.P.1 = 4 m Z G S ' f.{ T s._ ^ L V a r l ( :.4.P.P.P.P.P.P.P.",
"= g @.Z h , & C J k.P.P.P.P.P.P.P.P.P.P.P.P.P.P.P.P.P.P.P.P.P.P.P.P.P.P.P.3 | 6.w.O.b t t 0.f.>.a.>.+.V 4 e l X.@.e.P.P.P.P.P.P.",
"3 Z @.$.+.q % y C 6.z.P.P.P.P.P.P.P.P.P.P.P.P.P.P.P.P.P.P.P.P.P.P.P.P.P.P.P.P.4 j V l w 0 0 0.O.u.4.$.g.d < q z o.) d.P.P.P.P.P.",
"G ^ e.Q B r % , V V g.P.P.P.P.P.P.P.P.P.P.P.P.P.P.P.P.P.P.P.P.P.P.P.P.P.P.P.P.P.4 j N l q & y.s c w.,.! h 3 , q x $.o.k.P.P.P.P.",
"P u.B Z C h < $ y C [ l.P.P.P.P.P.P.P.P.P.P.P.P.P.P.P.P.P.P.P.P.P.P.P.P.P.P.P.P.P.P.j V y 0 i q.d X.Z Z N p < % q S @.5.P.P.P.P.",
"R ^ B C Z v r % % v v w.P.P.P.P.P.P.P.P.P.P.P.P.P.P.P.P.P.P.P.P.P.P.P.P.P.P.P.P.P.P.P.v V t 0 i 8.| C Z Z O.S , % w R o.j.P.P.P.",
"1 W >.B Z C h < @ , K v d.P.P.P.P.P.P.P.P.P.P.P.P.P.P.P.P.P.P.P.P.P.P.P.P.P.P.P.P.P.P.P.j V q % 0 y c f.g.>.4.2. .& s @.4.z.P.P.",
"= W w.B Z Z N p : @ r K G g.P.P.P.P.P.P.P.P.P.P.P.P.P.P.P.P.P.P.P.P.P.P.P.P.P.P.P.P.P.P.P.c N q % q s j.^ t.4.h e % & S %.j.P.P.",
"= a B +.L >.Z j 4 O O a K P j.P.P.P.P.P.P.P.P.P.P.P.P.P.P.P.P.P.P.P.P.P.P.P.P.P.P.P.P.P.P.P.c j q e d O.g.5.! v p q % q ) t.b.P.",
"- = +.a.! i.Z C h 1 O O j G W j.P.P.P.P.P.P.P.P.P.P.P.P.P.P.P.P.P.P.P.P.P.P.P.P.P.P.P.P.P.P.P.v h s s d J e.g.C h r , % b ,.z.P.",
"> = s h t.Z Z Z B d 1 O O N K ( j.P.P.P.P.P.P.P.P.P.P.P.P.P.P.P.P.P.P.P.P.P.P.P.P.P.P.P.P.P.P.P.v 4 # < a g.l.! C d q % w +.j.P.",
"P.= > ] f.C C Z Z B f 1 o o N P R g.P.P.P.P.P.P.P.P.P.P.P.P.P.P.P.P.P.P.P.P.P.P.P.P.P.P.P.P.P.P.P.N > : 3 N / u.i.K p , % H a.P.",
"P.> # p.J u.C C Z Z B h 2 + o j ^ T d.P.P.P.P.P.P.P.P.P.P.P.P.P.P.P.P.P.P.P.P.P.P.P.P.P.P.P.P.P.P.P.h + > a u.7.:.Z c r % z t.M.",
"P.Z |  .H J u.v B Z Z B j 7 = o h ) P u.P.P.P.P.P.P.P.P.P.P.P.P.P.P.P.P.P.P.P.P.P.P.P.P.P.P.P.P.P.P.P.2 = 1 [ >.! Z C d < u 7.M.",
"P.P.> : y ] I X.c N Z K C N d 1 + 7 ) I 4.j.P.P.P.P.P.P.P.P.P.P.P.P.P.P.P.P.P.P.P.P.P.P.P.P.P.P.P.P.P.v b 2 -.@.4.Z Z N r t 6.M.",
"P.P.7 : % r 4.G C c v C Z K B v 7 - 2 P ( o.d.P.P.P.P.P.P.P.P.P.P.P.P.P.P.P.P.P.P.P.P.P.P.P.P.P.P.P.P.P.8 c a 4.4.C Z C h i e.V.",
"P.P.P.3 : % } C i.H d c V C Z Z B j 4 > v ) ( w.g.P.P.P.P.P.P.P.P.P.P.P.P.P.P.P.P.P.P.P.P.P.P.P.P.P.P.P.7 : > 6.4.B Z Z v A a.M.",
"P.P.P.h p s [ [ e g.s y d c V C Z Z B f 4 r P ( $.d.P.P.P.P.P.P.P.P.P.P.P.P.P.P.P.P.P.P.P.P.P.P.P.P.P.P.P.1 : 6.6.C j Z N ` k.n.",
"P.P.P.P.g s e S 3.F W b t y s c N C Z Z N f 4 h I ( 5.g.P.P.P.P.P.P.P.P.P.P.P.P.P.P.P.P.P.P.P.P.P.P.P.P.P.=...W n 1 7 B P e.V.z.",
"P.P.P.P.j ^ H y , *.s 4.e q t y s d v V C C N a p n P ) 7.g.P.P.P.P.P.P.P.P.P.P.P.P.P.P.P.P.P.P.P.P.P.P.P.> = n > = 2 L >.l.N.P.",
"P.P.P.P.P.N p q 0 q F d S Y 0 q w t r s h h N N h a d V K +.e.g.P.P.P.P.P.P.P.P.P.P.P.P.P.P.P.P.P.P.P.P.P.P.= <.O O v 5.k.N.z.P.",
"P.P.P.P.P.P.N s q q 0 4.d k.| s l n J c e 4 r a h h a p h C P @.7.d.g.P.P.P.P.P.P.P.P.P.P.P.P.P.P.P.P.P.P.P.1 O . V e.k.N.n.g.P.",
"P.P.P.P.P.P.P.N k t q w k t W [ e 0 6.( s , , < 3 4 p p a d c J ^ @.,.t.g.g.P.P.P.P.P.P.P.P.P.P.P.P.P.P.P.P.4 p 7.d.b.N.b.j.P.P.",
"P.P.P.P.P.P.P.N V d y t w D S y [ H e s % $ $ % @ , < 3 3 4 p a c J ^ @.:.5.t.d.g.d.i.P.P.P.P.P.P.P.P.P.[ 1.a.j.z.n.n.l.g.i.P.P.",
"P.P.P.P.P.P.P.P.V C v l s y s p.h d.*.y % $ $ $ $ $ % , < 3 4 p a h v K R @.:.,.7.e.i.g.j.j.j.j.j.j.j.k.k.l.z.z.z.k.g.d.a.P.P.P.",
"P.P.P.P.P.P.P.P.P.B C V c c l c V c -.>.n , $ $ $ $ $ % 0 q q e r p d c V J R ) %.:.5.5.e.h.D.G.F.v.g.d.g.g.d.d.a.a.i.i.7.P.P.P.",
"P.P.P.P.P.P.P.P.P.P.N C C C C R r.w.e.d h w.: % @ $ @ % & 0 w w y r s d c v V K I ^ o.#.%.:.:.,.,.,.7.e.e.e.e.e.e.t.t.e.P.P.P.P.",
"P.P.P.P.P.P.P.P.P.P.P.P.Z / ^ L C B N *.a.R d t.3 # @ @ 3.q.q q w t y s s l c c n C K P ^ ^ / _ #.#.%.:.:.:.,.5.7.t.e.;.P.P.P.P.",
"P.P.P.P.P.P.P.P.P.P.P.P.P.j m N B C N N M 6.G 6.j e.> O J w., , q q e r y p p d h c v V C Z L I ! / / _ #.i.,.7.e.e.%.P.P.P.P.P.",
"P.P.P.P.P.P.P.P.P.P.P.P.P.P.f a f j j m j 8 g @.*.O.f I J o O @ : 3 h P *.r 4 p a d h j N V C Z K L I / ;.,.5.7.l.e.P.P.P.P.P.P.",
"P.P.P.P.P.P.P.P.P.P.P.P.P.P.P.P.7 4 5 f g Z +.G - 5 Z 1 p.h 6.X.m 1 3 >./ 3 4 8 K 9.f d h c v N C K ^ ) 7.,.7.e.i.P.P.P.P.P.P.P.",
"P.P.P.P.P.P.P.P.P.P.P.P.P.P.P.P.P.2 2 8 8 2 ; - * X * * U G 1 8 ! Q 9 5 ; a G a f.>.O.s.f d h v V u.j.t.:.e.a.i.P.P.P.P.P.P.P.P.",
"P.P.P.P.P.P.P.P.P.P.P.P.P.P.P.P.P.P.P.: * o o o o X . X j.o     . o - 6 ~ 4.-.P N K j 3.8 8 d c K o.b.t.n.a.g.P.P.P.P.P.P.P.P.P.",
"P.P.P.P.P.P.P.P.P.P.P.P.P.P.P.P.P.P.P.P.P.o X . X . . . 7 4.7 o ; $.X +.M 5 o.h h h 7 4 4 7 T 6.t.i.j.t.i.I P.P.P.P.P.P.P.P.P.P.",
"P.P.P.P.P.P.P.P.P.P.P.P.P.P.P.P.P.P.P.P.P.P.P.O . .       . o = o .   o m K = = = : &.- 1 a M.k.>.:.%.! P.P.P.P.P.P.P.P.P.P.P.P.",
"P.P.P.P.P.P.P.P.P.P.P.P.P.P.P.P.P.P.P.P.P.P.P.P.P.. . . .       . o 6 9 o X X O o o = - 4 v e./ / ! P.P.P.P.P.P.P.P.P.P.P.P.P.P.",
"P.P.P.P.P.P.P.P.P.P.P.P.P.P.P.P.P.P.P.P.P.P.P.P.P.P.P.P.P.. O ; - o . . . . . . X + > a X.o.L N P.P.P.P.P.P.P.P.P.P.P.P.P.P.P.P.",
"P.P.P.P.P.P.P.P.P.P.P.P.P.P.P.P.P.P.P.P.P.P.P.P.P.P.P.P.P.P.P.P.P.o = = = - 1 4 8 j L C P.P.P.P.P.P.P.P.P.P.P.P.P.P.P.P.P.P.P.P."
};
