/* XPM */
static char *result[] = {
/* columns rows colors chars-per-pixel */
"64 64 242 2 ",
"   c black",
".  c #010101",
"X  c #020202",
"o  c #020203",
"O  c gray1",
"+  c #030405",
"@  c #030406",
"#  c #030506",
"$  c #040404",
"%  c gray2",
"&  c #060606",
"*  c #070707",
"=  c #050709",
"-  c #06090B",
";  c #070A0C",
":  c gray3",
">  c #090909",
",  c #080C0F",
"<  c #0C0C0C",
"1  c gray5",
"2  c #0E0E0E",
"3  c gray6",
"4  c #090D11",
"5  c #090D12",
"6  c #0A0E13",
"7  c #0B1014",
"8  c #0D1318",
"9  c #0E141B",
"0  c #101010",
"q  c #111111",
"w  c gray7",
"e  c #121313",
"r  c #131313",
"t  c gray8",
"y  c #141515",
"u  c #151515",
"i  c #161616",
"p  c #10171E",
"a  c #10181F",
"s  c #181818",
"d  c gray10",
"f  c #1B1B1B",
"g  c #1E1E1E",
"h  c gray12",
"j  c #111820",
"k  c #131B22",
"l  c #151E28",
"z  c #16202A",
"x  c #17212B",
"c  c #19222A",
"v  c #19222B",
"b  c #18222D",
"n  c #1A2531",
"m  c #1C2731",
"M  c #1D2832",
"N  c #1D2A37",
"B  c #1F2C3A",
"V  c #202020",
"C  c #222222",
"Z  c gray14",
"A  c #252525",
"S  c gray15",
"D  c #272727",
"F  c #272828",
"G  c #282828",
"H  c gray16",
"J  c #292A2A",
"K  c #2A2A2A",
"L  c gray17",
"P  c #2C2C2C",
"I  c #2C2D2D",
"U  c gray18",
"Y  c #2F2F2F",
"T  c #24313E",
"R  c gray19",
"E  c #313131",
"W  c #313232",
"Q  c #323232",
"!  c #343434",
"~  c #353535",
"^  c #353636",
"/  c gray21",
"(  c #373737",
")  c gray22",
"_  c #383939",
"`  c #393939",
"'  c gray23",
"]  c #3C3C3C",
"[  c #3E3E3E",
"{  c #3F3F3F",
"}  c #223140",
"|  c #263542",
" . c #273543",
".. c #243344",
"X. c #243445",
"o. c #253545",
"O. c #263647",
"+. c #293948",
"@. c #2B3C4B",
"#. c #293B4D",
"$. c #293B4E",
"%. c #2A3C4F",
"&. c #3F4040",
"*. c #2E4050",
"=. c #304253",
"-. c #35495B",
";. c #32485F",
":. c #354C64",
">. c #354D65",
",. c #364E67",
"<. c #394F63",
"1. c #374F68",
"2. c #384F69",
"3. c #375069",
"4. c #385068",
"5. c #385069",
"6. c #395069",
"7. c #385169",
"8. c #39516A",
"9. c #3A526A",
"0. c #3A526B",
"q. c #3A536B",
"w. c #3B536B",
"e. c #3E556A",
"r. c #3B536C",
"t. c #3C546C",
"y. c #3C546D",
"u. c #3C556D",
"i. c #3D566E",
"p. c #3E576F",
"a. c #3F586F",
"s. c #3F5870",
"d. c gray25",
"f. c #414141",
"g. c #434343",
"h. c #444444",
"j. c #464646",
"k. c #484949",
"l. c #494949",
"z. c #494A4A",
"x. c #4C4C4C",
"c. c #4C4D4D",
"v. c #4E4E4E",
"b. c gray31",
"n. c #4F5050",
"m. c #505050",
"M. c #515151",
"N. c gray32",
"B. c #535353",
"V. c gray33",
"C. c #545555",
"Z. c #555555",
"A. c #555656",
"S. c gray34",
"D. c #585858",
"F. c gray35",
"G. c #595A5A",
"H. c #5A5A5A",
"J. c #5B5B5B",
"K. c #5D5D5D",
"L. c #5D5E5E",
"P. c gray37",
"I. c #5E5F5F",
"U. c #5F5F5F",
"Y. c #40586F",
"T. c #405870",
"R. c #405970",
"E. c #405A71",
"W. c #415A71",
"Q. c #415B72",
"!. c #425B72",
"~. c #5F6060",
"^. c #606060",
"/. c #606161",
"(. c #626262",
"). c gray39",
"_. c #636464",
"`. c #656565",
"'. c #676767",
"]. c #686868",
"[. c DimGray",
"{. c #6A6A6A",
"}. c #6A6B6B",
"|. c gray42",
" X c #6C6C6C",
".X c #6C6D6D",
"XX c #6D6D6D",
"oX c #6D6E6E",
"OX c gray43",
"+X c #6F6F6F",
"@X c gray44",
"#X c #707171",
"$X c #717171",
"%X c #727272",
"&X c #727373",
"*X c gray45",
"=X c #737474",
"-X c #767676",
";X c #767777",
":X c #777777",
">X c gray47",
",X c #787979",
"<X c #797979",
"1X c #797A7A",
"2X c gray48",
"3X c #7A7B7B",
"4X c #7B7B7B",
"5X c #7B7C7C",
"6X c #7C7C7C",
"7X c #7C7D7D",
"8X c gray49",
"9X c #7D7E7E",
"0X c #7E7E7E",
"qX c #7E7F7F",
"wX c gray50",
"eX c #7F8080",
"rX c #808080",
"tX c #818181",
"yX c #818282",
"uX c gray51",
"iX c #828383",
"pX c #838383",
"aX c #838484",
"sX c #848484",
"dX c #848585",
"fX c #868686",
"gX c #868787",
"hX c gray53",
"jX c #878888",
"kX c #888888",
"lX c #898989",
"zX c gray54",
"xX c #8A8B8B",
"cX c #8B8B8B",
"vX c gray55",
"bX c #8D8D8D",
"nX c #8D8E8E",
"mX c #8E8E8E",
"MX c gray56",
"NX c #909090",
"BX c gray57",
"VX c None",
/* pixels */
"VXVXVXVXVXVXVXVXVXVXVXVXVXVXVXVXVXVXVXVXVXVXVXVXVXVXVXVXVXVXVXVXVXVXVXVXVXVXVXVXVXVXVXVXVXVXVXVXVXVXVXVXVXVXVXVXVXVXVXVXVXVXVXVX",
"VXVXVXVXVXVXVXVXVXVXVXVXVXVXVXVXVXVXVXVXVXVXVXVXVXVXVXVXVXVXVXVXVXVXVXVXVXVXVXVXVXVXVXVXVXVXVXVXVXVXVXVXVXVXVXVXVXVXVXVXVXVXVXVX",
"VXVXVXVXVXVXVXVXVXVXVXVXVXVXVXVXVXVXVXVXVXVXVXVXVXVXVXVXVXVXVXVXVXVXVXVXVXVXVXVXVXVXVXVXVXVXVXVXVXVXVXVXVXVXVXVXVXVXVXVXVXVXVXVX",
"VXVXVXVXVXVXVXVXVXVXVXVXVXVXVXVXVXVXVXVXVXVXVXVXVXVXVXVXVX                VXVXVXVXVXVXVXVXVXVXVXVXVXVXVXVXVXVXVXVXVXVXVXVXVXVXVX",
"VXVXVXVXVXVXVXVXVXVXVXVXVXVXVXVXVXVXVXVXVXVXVXVXVXVXVX                      VXVXVXVXVXVXVXVXVXVXVXVXVXVXVXVXVXVXVXVXVXVXVXVXVXVX",
"VXVXVXVXVXVXVXVXVXVXVXVXVXVXVXVXVXVXVXVXVXVXVXVXVXVX        J N.B.C.M.q     VXVXVXVXVXVXVXVXVXVXVXVXVXVXVXVXVXVXVXVXVXVXVXVXVXVX",
"VXVXVXVXVXVXVXVXVXVXVXVXVXVXVXVXVXVXVXVXVXVXVXVX        y L.7X7XpXMXBXOX      VXVXVXVXVXVXVXVXVXVXVXVXVXVXVXVXVXVXVXVXVXVXVXVXVX",
"VXVXVXVXVXVXVXVXVXVXVXVXVXVXVXVXVXVXVXVXVXVXVX      & h.3X7XrXcXBXBXBXBXS     VXVXVXVXVXVXVXVXVXVXVXVXVXVXVXVXVXVXVXVXVXVXVXVXVX",
"VXVXVXVXVXVXVXVXVXVXVXVXVXVXVXVXVXVXVXVXVXVX      A oX7XqXjXBXBXBXBXBXBX@X      VXVXVXVXVXVXVXVXVXVXVXVXVXVXVXVXVXVXVXVXVXVXVXVX",
"VXVXVXVXVXVXVXVXVXVXVXVXVXVXVXVXVXVXVXVXVX      ( 7X7XeXMXBXBXBXBXBXBXBXBXA     VXVXVXVXVXVXVXVXVXVXVXVXVXVXVXVXVXVXVXVXVXVXVXVX",
"VXVXVXVXVXVXVXVXVXVXVXVXVXVXVX      VXVX      f 1X7X9XnXBXBXBXBXBXBXBXBXBXv.    VXVXVXVXVXVXVXVXVXVXVXVXVXVXVXVXVXVXVXVXVXVXVXVX",
"VXVXVXVXVXVXVXVXVXVXVXVXVXVX                : .X7X7XlXBXBXBXBXBXBXBXBXBXBX|.    VXVXVXVXVXVXVXVXVXVXVXVXVXVXVXVXVXVXVXVXVXVXVXVX",
"VXVXVXVXVXVXVXVXVXVXVXVXVX      i .         A.7X7XdXBXBXBXBXBXBXBXBXBXBXBXkX.     VXVXVXVXVXVXVXVXVXVXVXVXVXVXVXVXVXVXVXVXVXVXVX",
"VXVXVXVXVXVXVXVXVXVXVXVXVX    * &X/.e     P pX7XrXNXBXBXBXBXBXBXBXBXBXBXBXBXt     VXVXVXVXVXVXVXVXVXVXVXVXVXVXVXVXVXVXVXVXVXVXVX",
"VXVXVXVXVXVXVXVXVXVXVXVX      g.7X7XeX0   2 mXxXmXBXBXBXBXBXBXBXBXBXBXBXBXBXE     VXVXVXVXVXVXVXVXVXVXVXVXVXVXVXVXVXVXVXVXVXVXVX",
"VXVXVXVXVXVXVXVXVXVXVXVX    0 ,X7X9XMXl.    (.BXBXBXBXBXBXBXBXBXBXBXBXBXBXBXx.      VXVXVXVXVXVXVXVXVXVXVXVXVXVXVXVXVXVXVXVXVXVX",
"VXVXVXVXVXVXVXVXVXVXVX      M.7X7XjXBXtXX   H BXBXBXBXBXBXBXBXBXBXBXBXBXBXBXS           VXVXVXVXVXVXVXVXVXVXVXVXVXVXVXVXVXVXVXVX",
"VXVXVXVXVXVXVXVXVXVXVX    d 7X7XeXNXBXBXL   . 0XBXBXBXBXBXBXBXBXBXBXBXBXBXOX    X         VXVXVXVXVXVXVXVXVXVXVXVXVXVXVXVXVXVXVX",
"VXVXVXVXVXVXVXVXVXVX      I.7X7XzXBXBXBX`.    j.BXBXBXBXBXBXBXBXBXBXBXBXBXS      Xm.:         VXVXVXVXVXVXVXVXVXVXVXVXVXVXVXVXVX",
"VXVXVXVXVXVXVXVXVXVX    F 7X7XyXNXBXBXBXMX0   0 BXBXBXBXBXBXBXBXBXBXBXBX+X    S BXBXpX! .       VXVXVXVXVXVXVXVXVXVXVXVXVXVXVXVX",
"VXVXVXVXVXVXVXVXVX    X }.7X7XcXBXBXBXBXBXV   r BXBXBXBXBXBXBXBXBXBXBXBXG     OXBXBXBXBX+Xf       VXVXVXVXVXVXVXVXVXVXVXVXVXVXVX",
"VXVXVXVXVXVXVXVX      ^ 7X7XpXBXBXBXBXBXkXX   ~ BXBXBXBXBXBXBXBXBXBXBXBX<   O <XBXBXBXBXBXMXE       VXVXVXVXVXVXVXVXVXVXVXVXVXVX",
"VXVXVXVXVXVXVXVX    : =X7X9XmXBXBXBXBXBX).    H.BXBXBXBXBXBXBXBXBXBXBXBXb.    s cXBXBXBXBXBXMXE       VXVXVXVXVXVXVXVXVXVXVXVXVX",
"VXVXVXVXVXVXVXVX    Q 7X7XdXBXBXBXBXBXBX'     0XBXBXBXBXBXBXBXBXBXBXBXBXNXL     / BXBXBXBXBXBXMXE       VXVXVXVXVXVXVXVXVXVXVXVX",
"VXVXVXVXVXVXVXVX    z.7X7XvXBXBXBXBXBXBXt   w BXBXBXBXBXBXBXBXBXBXBXBXBXBXfXq     J.BXBXBXBXBXBXMXK     VXVXVXVXVXVXVXVXVXVXVXVX",
"VXVXVXVXVXVXVX      ~.7X9XNXBXBXBXBXBXMXX   ) BXBXBXBXBXBXBXBXBXBXBXBXBXBXBX$XO   & <XBXBXBXBXBXBXD.    VXVXVXVXVXVXVXVXVXVXVXVX",
"VXVXVXVXVXVXVX    . ;X7XqXBXBXBXBXBXBXBXF.~ wXBXBXBXBXBXBXBXBXBXBXBXBXBXBXBXBXb.    ` BXBXBXBXBXBX+X      VXVXVXVXVXVXVXVXVXVXVX",
"VXVXVXVXVXVXVX    w 7X7XiXBXBXBXBXBXBXBXBXBXBXBXBXBXBXBXBXBXBXBXBXBXBXBXBXBXBXNX    R BXBXBXBXBXBXhX      VXVXVXVXVXVXVXVXVXVXVX",
"VXVXVXVXVXVXVX    H 7X7XgXBXBXBXBXBXBXBXBXBXBXBXBXBXBXBXBXBXBXBXBXBXBXBXBXBXBXBX    R BXBXBXBXBXBXBX1     VXVXVXVXVXVXVXVXVXVXVX",
"VXVXVXVXVXVXVX    d.7X7XxXBXBXBXBXBXBXBXBXBXBXBXBXBXBXBXBXBXBXBXBXBXBXBXBXBXBXBX    R BXBXBXBXBXBXBXZ     VXVXVXVXVXVXVXVXVXVXVX",
"VXVXVXVXVXVXVX    S.7X7XnXBXBXBXBXBXBXBXBXBXBXBXBXBXBXBXBXBXBXBXBXBXBXBXBXBXBXBX    R BXBXBXBXBXBXBX]     VXVXVXVXVXVXVXVXVXVXVX",
"VXVXVXVXVXVX      oX7X9XBXBXBXBXBXBXBXBXBXBXBXBXBXBXBXBXBXBXBXBXBXBXBXBXBXBXBXBX    R BXBXBXBXBXBXBXV.    VXVXVXVXVXVXVXVXVXVXVX",
"VXVXVXVXVXVX    : 7X7XyXBXBXBXBXBXBXBXBXBXBXBXBXBXBXBXBXBXBXBX2XF.^.kXBXBXBXBXBXu   j.BXBXBXBXBXBXBX*X      VXVXVXVXVXVXVXVXVXVX",
"VXVXVXVXVXVX    h 7X7XsXBXBXBXBXBXBXBXBXBXBXBXBXBXBXBXBXBX|.Z       : U.BXBXBXBXpX[.MXBXBXBXBXBXBXBXBXC     VXVXVXVXVXVXVXVXVXVX",
"VXVXVXVXVXVX    ^ 7X7XlXBXBXBXBXBXBXBXBXBXBXBXBXBXBXBXhXU             . F.BXBXBXBXBXBXBXBXBXBXBXBXBXBX{.      VXVXVXVXVXVXVXVXVX",
"VXVXVXVXVXVX    c.7X7XvXBXBXBXBXBXBXBXBXBXBXBXBXBXBXcXf       9 ..n     . K.BXBXBXBXBXBXBXBXBXBXBXBXBXBXC     VXVXVXVXVXVXVXVXVX",
"VXVXVXVXVX      _.7X9XNXBXBXBXBXBXBXBXBXBXBXBXBXBXBXv.    , %.1.1.r.|     % 6XBXBXBXBXBXBXBXBXBXBXBXBXBX{.      VXVXVXVXVXVXVXVX",
"VXVXVXVXVX      M.7XeXBXBXBXBXBXBXBXBXBXBXBXBXBXBXNX3   # ;.1.1.p.!.!.T     f.BXBXBXBXBXBXBXBXBXBXBXBXBXBXC     VXVXVXVXVXVXVXVX",
"VXVXVXVXVX      1 ;XpXBXBXBXBXBXBXBXBXBXBXBXBXBXBX+X    x 1.1.0.!.!.!.!.;   C BXBXBXBXBXBXBXBXBXBXBXBXBXBX{.      VXVXVXVXVXVXVX",
"VXVXVXVX          _ vXBXBXBXBXBXBXBXBXBXBXBXBXBXBX[     #.1.1.a.!.!.!.!.k   & MXBXBXBXBXBXBXBXBXBXBXBXBXBX%X*     VXVXVXVXVXVXVX",
"VXVXVXVX    L <   O <XBXBXBXBXBXBXBXBXBXBXBXBXBXNX3   = ,.1.6.Q.!.!.!.!.M     6XBXBXBXBXBXBXBXBXBXBXBX*XL         VXVXVXVXVXVXVX",
"VXVXVX    X .Xn.    A BXBXBXBXBXBXBXBXBXBXBXBXBXOX    z 1.1.y.!.!.!.!.!. .    '.BXBXBXBXBXBXBXBXBXwXL               VXVXVXVXVXVX",
"VXVXVX    W 7X7Xh     U.BXBXBXBXBXBXBXBXBXBXBXBX]     $.1.1.T.!.!.!.!.!.=.    B.BXBXBXBXBXBXBXBXBXS       Z ]..     VXVXVXVXVXVX",
"VXVX    X .X7X7X*XX   t NXBXBXBXBXBXBXBXBXBXBX<X&   4 1.1.7.Q.!.!.!.!.!.<.    { BXBXBXBXBXBXBXBXOX    s XXBXBX1     VXVXVXVXVXVX",
"VXVX    W 7X7XyXBXg   : BXBXBXBXBXBXBXBXBXBX2X2     } 1.1.u.!.!.!.!.!.!.W.o   L BXBXBXBXBXBXBXBXS     XXBXBXBXh     VXVXVXVXVXVX",
"VX      .X7X7XvXMX%   Z BXBXBXBXBXBXBXBXBX2X2     l 1.1.5.E.!.!.!.!.!.!.!.7   3 NXBXBXBXBXBXBX+X    A BXBXBXBXE     VXVXVXVXVXVX",
"VX    > 7X7XyXBX-X    f.BXBXBXBXBXBXBXBX2X2     p >.1.4.s.!.!.!.!.!.!.!.!.m     m.BXBXBXBXBXBXD     OXBXBXBXBXg.    VXVXVXVXVXVX",
"VX    y 7X7XdXBXD.    P.BXBXBXBXBXBXBXuX3     p >.1.4.s.!.!.!.!.!.!.!.!.!.<.+   . D.BXBXBXBX:X    S BXBXBXBXBXZ.    VXVXVXVXVXVX",
"VX    V 7X7XgXBX`     4XBXBXBXBXBXBXBXL     a >.1.2.R.!.!.!.!.!.!.!.!.!.!.!.*..   . H.BXBXBX>XX O $XBXBXBXBXBX'.    VXVXVXVXVXVX",
"VX    P 7X7XlXBXf   : NXBXBXBXBXBXBX<X    5 :.1.3.Y.!.!.!.!.!.!.!.!.!.!.!.!.!.+..   O XXBXBXBX>X<XBXBXBXBXBXBX<X      VXVXVXVXVX",
"VX    ( 7X7XxXNXX   Z BXBXBXBXBXBXBXm.    X.1.1.i.!.!.!.!.!.!.!.!.!.!.!.!.!.!.!.+.    d NXBXBXBXBXBXBXBXBXBXBXcX.     VXVXVXVXVX",
"VX    g.7X7XvXBXR $ P.BXBXBXBXBXBXBX)     ;.1.5.!.!.!.!.!.!.!.!.!.!.!.!.!.!.!.!.!.c     XXBXBXBXBXBXBXBXBXBXBXBXY       VXVXVXVX",
"VX    v.7X7XMXBXBXBXBXBXBXBXBXBXBXBXS   @ 1.1.9.!.!.!.!.!.!.!.!.!.!.!.!.!.!.!.!.!.-.    { BXBXBXBXBXBXBXBXBXBXBXvXH       VXVXVX",
"VX    G.7X7XMXBXBXBXBXBXBXBXBXBXBXBXt   6 1.1.r.!.!.!.!.!.!.!.!.!.!.!.!.!.!.!.!.!.!.-   i BXBXBXBXBXBXBXBXBXBXBXBXvXK       VXVX",
"      `.7X7XcXBXBXBXBXBXBXBXBXBXBXNXO   j 1.1.t.!.!.!.!.!.!.!.!.!.!.!.!.!.!.!.!.!.!.v     8XBXBXBXBXBXBXBXBXBXBXBXBXbXL       VX",
"      #X7X7XyXNXBXBXBXBXBXBXBXBXBXtX    b 1.1.q.!.!.!.!.!.!.!.!.!.!.!.!.!.!.!.!.!.!.@.    V.BXBXBXBXBXBXBXBXBXBXBXBXBXbXt     VX",
"    . 5X7X7X7XaXNXBXBXBXBXBXBXBXBXOX    B 1.1.1.p.!.!.!.!.!.!.!.!.!.!.!.!.!.!.!.!.!.e..   K BXBXBXBXBXBXBXBXBXBXBXBXBXBX]     VX",
"    < 7X7X7X7X7X9XiXpXpXpXpXpXpXpXB.    O.1.1.1.1.8.r.w.w.w.w.w.w.w.w.w.w.w.w.w.w.w.w.8   % 0XpXpXpXpXpXpXpXpXpXpXpXpXpXS.    VX",
"    2 B.B.B.B.B.B.B.B.B.B.B.B.B.B.I     N o.o.o.o.o.o.o.o.o.o.o.o.o.o.o.o.o.o.o.o.o.o.j     &.B.B.B.B.B.B.B.B.B.B.B.B.B.k.      ",
"                                                                                                                                ",
"                                                                                                                                ",
"VXVXVXVXVXVXVXVXVXVXVXVXVXVXVXVXVXVXVXVXVXVXVXVXVXVXVXVXVXVXVXVXVXVXVXVXVXVXVXVXVXVXVXVXVXVXVXVXVXVXVXVXVXVXVXVXVXVXVXVXVXVXVXVX",
"VXVXVXVXVXVXVXVXVXVXVXVXVXVXVXVXVXVXVXVXVXVXVXVXVXVXVXVXVXVXVXVXVXVXVXVXVXVXVXVXVXVXVXVXVXVXVXVXVXVXVXVXVXVXVXVXVXVXVXVXVXVXVXVX",
"VXVXVXVXVXVXVXVXVXVXVXVXVXVXVXVXVXVXVXVXVXVXVXVXVXVXVXVXVXVXVXVXVXVXVXVXVXVXVXVXVXVXVXVXVXVXVXVXVXVXVXVXVXVXVXVXVXVXVXVXVXVXVXVX"
};
