/* XPM */
static char *_7b4979ddbc0476a95f5aa80bbab9156Vs6ACB8Y9laeEbM6[] = {
/* columns rows colors chars-per-pixel */
"64 64 176 2 ",
"   c None",
".  c #151615",
"X  c #181717",
"o  c #1B1916",
"O  c #1D1D1A",
"+  c #211D19",
"@  c #23221E",
"#  c #2A231E",
"$  c #252624",
"%  c #2E2720",
"&  c #2B2A24",
"*  c #262628",
"=  c #2B2D2A",
"-  c #312B23",
";  c #392F26",
":  c #2F312F",
">  c #323127",
",  c #34322C",
"<  c #3D372E",
"1  c #2C2F30",
"2  c #2F3131",
"3  c #2F3438",
"4  c #333433",
"5  c #383631",
"6  c #373837",
"7  c #3C3B36",
"8  c #333739",
"9  c #363A3C",
"0  c #3B3D3B",
"q  c #41372D",
"w  c #433D35",
"e  c #493B30",
"r  c #423E39",
"t  c #3E413F",
"y  c #434036",
"u  c #4B4532",
"i  c #44433C",
"p  c #4D473E",
"a  c #4C483D",
"s  c #504836",
"d  c #544D3D",
"f  c #373C41",
"g  c #3B3E42",
"h  c #3E4242",
"j  c #3D4349",
"k  c #434544",
"l  c #454946",
"z  c #4B4B45",
"x  c #424649",
"c  c #464A4B",
"v  c #4B4E4C",
"b  c #534D43",
"n  c #584F42",
"m  c #514F48",
"M  c #4E514E",
"N  c #575044",
"B  c #5A5246",
"V  c #53534D",
"C  c #5B544B",
"Z  c #5A5A4F",
"A  c #464C51",
"S  c #4A4E51",
"D  c #4D5253",
"F  c #4D5459",
"G  c #535553",
"H  c #585651",
"J  c #565955",
"K  c #5B5A54",
"L  c #525659",
"P  c #555A5C",
"I  c #5B5D5B",
"U  c #60574A",
"Y  c #625B4E",
"T  c #635D54",
"R  c #685F55",
"E  c #615E59",
"W  c #5E6057",
"Q  c #5E605D",
"!  c #646156",
"~  c #6A6456",
"^  c #6F6852",
"/  c #63625C",
"(  c #6B655B",
")  c #6D695D",
"_  c #756950",
"`  c #71665B",
"'  c #736B5D",
"]  c #77715E",
"[  c #7E7458",
"{  c #575D60",
"}  c #5A5E62",
"|  c #5D6264",
" . c #5F6468",
".. c #636563",
"X. c #696761",
"o. c #666865",
"O. c #6C6A64",
"+. c #626669",
"@. c #66696B",
"#. c #6A6C6B",
"$. c #726D63",
"%. c #796E61",
"&. c #706D68",
"*. c #6D706F",
"=. c #757166",
"-. c #7B7264",
";. c #73726B",
":. c #7A756B",
">. c #7E796D",
",. c #6A6E71",
"<. c #6C6F70",
"1. c #6E7174",
"2. c #747573",
"3. c #7E7B71",
"4. c #727578",
"5. c #75777B",
"6. c #74767A",
"7. c #76797A",
"8. c #7A7B7B",
"9. c #83765A",
"0. c #827567",
"q. c #83776A",
"w. c #82766A",
"e. c #867A6E",
"r. c #847A6D",
"t. c #887B6E",
"y. c #8A7C6D",
"u. c #857D71",
"i. c #847D72",
"p. c #897F72",
"a. c #827E7D",
"s. c #7C807F",
"d. c #868075",
"f. c #8B8271",
"g. c #8B8275",
"h. c #84827E",
"j. c #8E867A",
"k. c #928474",
"l. c #928779",
"z. c #948A7C",
"x. c #9A8C7D",
"c. c #9B8B70",
"v. c #B29A7C",
"b. c #777C81",
"n. c #7D7E80",
"m. c #848586",
"M. c #8E8A83",
"N. c #878B89",
"B. c #898B89",
"V. c #968D82",
"C. c #9A8F82",
"Z. c #9C9182",
"A. c #9E9388",
"S. c #A29585",
"D. c #A59887",
"F. c #A29689",
"G. c #A5998A",
"H. c #A99D8D",
"J. c #A99D90",
"K. c #BBA58D",
"L. c #BCA88F",
"P. c #AEA294",
"I. c #B2A494",
"U. c #BBA894",
"Y. c #B5A79A",
"T. c #B7A998",
"R. c #B8AA99",
"E. c #9E9FA3",
"W. c #C0AB94",
"Q. c #C6B29D",
"!. c #C3B3A2",
"~. c #C9B5A2",
"^. c #CEBAA5",
"/. c #CEBCAA",
"(. c #D1BEAC",
"). c #D1BCA3",
/* pixels */
"                                                                                                                                ",
"                                                                                                                                ",
"                                                                                                                                ",
"                                                                                                      &.O.                      ",
"                                                                                                      ( (                       ",
"                                                                                                    V T T C                     ",
"                                                                                                  ( R B n C T                   ",
"                                                                                                = i B U ( -.$.6                 ",
"                                                                                              =.p < , , y p a n $.              ",
"                                                                                            e.0.Y Y C b i p $.t.k.i.            ",
"                                                                                          ' Y ` ] %.` ' %.%.V.C.t.T K           ",
"                                                                                        %.x.w.B n b b N Y ( T C p C -.          ",
"                                                                                      f i t.D.Z.p.%.u.-.( R R -.t.l.%.C D       ",
"                                                                                    P 9 & z R g.C.A.z.-.-.w.w.w.e.t.m : c       ",
"            A c h x A D                                                             c 4 2 9 t z E X.K C T O.T V V k 4 6 h F     ",
"          j 9 g l l 9 x                                                             } c f x = = 9 v k 6 h k k 6 2 * 1 x f D     ",
"          P L } | } L |         f.:.(                                               P +.D S 8 = 9 } c $ 1 j D f $ $ 3 S F       ",
"          4.5.5.4.<.,.+.Z ' ! ~ ~ ! K ~ $.) ) :.    f.  :.>.  :.-.[ u.%.o...P P F P {  .+.4.+.L S c c g f c x A k h S +.,.      ",
"          | | @.@.| P P Z / C T K V V K / T ~ ) %.' -.-.' =.' ( ( ^ ' ! / K V v v c G | @.,.,.@.P | 1.+.+.+...| @.I } ..|       ",
"          +.} | P L | L V V V H m V H m m V K K ! T / O.~ O.K K K V K V K V z k 0 k D I ..@...I L | @.+.+.P | } L P | ..|       ",
"          I P } G D L P J K K E / o.....E E E K K K K T T T T / E K K K K K V V v M +.J I o.@.| J ..+.| P L P P D L | ..I       ",
"          I J P L L I P D L I I H G J G I ..o.o.#.#.#.o.o.o.o.o.#...Q I J G v c t h } ......I } P ....+.| P J } D L +.I |       ",
"          L P L L D L S M V J J H K | K I / I E #.o./ o.o./ K ....K K I J v z c 0 t S | 1.7.@.| I I P I L L J D S { | #.1.      ",
"        j j f f j x L P P H J J J J } I I Q / #.*.2.O.o./ / / o...I H H G M M v h h D D I +.,.1.+.,.*.o.| ..@.| | } P | |       ",
"    v 9 8 9 g k 0 8 L +.L G J G J J J J J I ..#.#.;.O.#./ O./ / I J K G G M z l h h D P } S L P D P I +.1.@.@.P P L S J I       ",
"    D g I 2.2.2.I S #.;./ H G v 4 6 k v V J / o.I o.o.o.W / I K M J J V G V v v z k L D } P L D D D h D L S F h x S D H )       ",
"    1.} | +.| L } 1.<.:.g.3.X.M $ @ @ $ = , 0 V K O.O.o.I Q K o.3.z.Z.x.C.z.z.f.:.c } v L P I P D D S D D D D S c D c V / ]     ",
"    o.1.1.<.#.+.+.+.P ( g.l.l.p.m , = , = , b C n ( =.#.I W H O.P.R.T.I.H.H.G.x.t.v P P | } D D v v D D D D D S x J V 7 K -.    ",
"    Q I P P D L L P L T u.l.z.z.8.l , 7 i -.f.r.0.y.x.-.r./ M V z.H.I.I.H.G.G.Z.t.v P L | ,.| P D L D c v S G K k v O.r H >.    ",
"    I P I J S S P L L V i.g.j.M.B.#.7 T -.g.l.z.S.C.r.S.k.C T v K u.H.I.H.G.S.l.w.z L P P { | P L | P L L H u.>.D D o.' O.=.    ",
"    I P J K c c D P G T ;.$.g.h.#.6 w Y w.z.Z.z.y.r.C.w.d U R   j.I.T.H.:.r.D.S.t.v S S L L D c x x j F I r.S.G.( M / :.=.O.    ",
"    G L L / v c L D J O.I O.2.Q 6 i ' B n n R -.x.l.R n ( m M   Z.Z.Z.( : K >.%.) V D l l 0 c D L c 0 H t.Z.Z.C.g.K X.:.$.)     ",
"    V D v K G I v v | ..o.O.V = & m ) C ( ' B B B B C ( ( v D   O.2.s.v O v P L K =.J v c 0 k S J I K j.S.Z.z.j.g.:.( :.$.)     ",
"    o.I P / O.:./ I @.../ 0 @ $ 7 K / 0 v I z b ~ -.' V D L G             M J Y Y o.  v M D D L ;.2.:.G.F.V.j.u.z.r.! 3.;.o.    ",
"    I | | o./ ( o.o./ o.k $ & i z I I G Q P i 0 / O./ D L L I         v.  -.' 9.c.:.      I D D J N.#.g.A.j.u.g.V.V V ;.=.:.    ",
"      D c / ! K I K K X.i V i / / I ..Q | I J I o.W I P D J O.G.      L.K.K.U.W.Q.l.          k ;.M.2.2.3.>.>.j.h.z i O.:.i.    ",
"      S x I X.H K K Z I z o...I Y K o.#...I ..| o.I L D P J o.g.      ^.~.Q.~.^.(.Y.          5.} P F A x D P ..;.:.5 C i.3.    ",
"      v k L @.H H K K K M / K m Y ! / o...o.I J Q I L I | P K ' u       ~./.(.(././.          E.F 8 9 8 8 9 8 9 A 2.T C 3.:.    ",
"      v x L ..v k H K ( K K Y ' r.$.P ....#.o.o.o.I H J L v K r.u     d k.D.!././.(.(.        b.9 6 z v I I v 9 8 G d.:.:.%.    ",
"      k f S ..L 9 v I / K ( w.k.z.:.P P I ..Q ..Q Q G v v V K =.%.( U s _ R >.!./.^.).        +.c H ;.a.h.h.2.J 0 L d.>.:.$.    ",
"      v k M ..L 0 M Q I ! $.l.z.X.I I I I | } P J I G k c v / j.S.F.z.%.b i K                 o.#.L ..8.8.4.#.} P <.:.=.=.(     ",
"            I M 7 z J o.I / ;.;.( H I ..I I | P M V k h l K >.z.S.G.z.u./ / W V                 ..n.7.2.@.+.@.@.n.8.$.=.;.O.    ",
"            / V w K K / ../ I I o.v v P G G J I J v k v / >.l.z.l.z.r.;.( O.O.K                 D +.,.8.m.B.m.5.#...( ;.O.O.    ",
"            W z w K H K I J K G V z l c k G D J J v z K g.Z.S.x.f.-./ O.( / O.( ~ z           H P } } | #.+.#.@.....O.;.o.      ",
"              > = I I K J H K J v v l k k h x k L M v ( z.J.H.k.' ( ( O.( K O.) K z :.  i.r.9./ I P P +...I ..+.#.@.$.o.o.      ",
"                  J I I J J J J M M l c k h h 9 c v v ( $.j.S.w.V K I ;./ V O.( T X.$.  :.:.' / H L P ..} | I J ..@.( o.o.      ",
"                  V J G H G M D D D k h x h 0 0 l z z H / ( -.( K H G #...V ( ( X.$.( T / ) ( ( H J | | | | } ..@...o.o.o.      ",
"                  H G V K v M M L L c k h h h   l G G v / G v G V G L ..J k J / O.O.K i k K ! ( V D P ....| I } I | o...I       ",
"                  v v v J V V D D l M v h h     k G Q J K M c D P G G +.I 0 v H J I V V G / T E K D L L D L D } I ..../ K       ",
"                      z G v v z k i M D t       l L I K V H J | P v L ..I k v H H H i v #.O.E ..I I I I L P L +.#.#./ Q K       ",
"                          k k                   M J J I K H K J H G P I P 0 w v M H z v ..I v G D @.@.#...@.@.#.8.o.I I H       ",
"                                                v G H L H I I H J J L ..J , - # $ 0 i M #.| H V c L P @.1.4.1.| | | K K         ",
"                                                  M J H M L J J J L D Q G < w # . @ - z ..| K D c S c D P D P P P J V           ",
"                                                    M M M G G I H M M V k & q e o X o i o.P J G c c S L S D L I P G             ",
"                                                      l k v J V V         o # ; % X X 7 o.G M M c c c S c D S S L               ",
"                                                            V z               - % o o 7 / G V v c c v S D D D P P               ",
"                                                                                  + O w I G z l h j c v S G D D v               ",
"                                                                                                  0 h g k k k S L               ",
"                                                                                                    k k k c c L ..              ",
"                                                                                                                                ",
"                                                                                                                                ",
"                                                                                                                                ",
"                                                                                                                                ",
"                                                                                                                                "
};
