/* XPM */
static char *_b2f798f14064d49baf262acdba76dd9YtHaOGYV2U1XyRHV[] = {
/* columns rows colors chars-per-pixel */
"64 64 164 2 ",
"   c #453F1D",
".  c #46431C",
"X  c #49461E",
"o  c #47491B",
"O  c #4B4C1D",
"+  c #514F1F",
"@  c #4B5317",
"#  c #4F5817",
"$  c #4D531D",
"%  c #4F591E",
"&  c #51561E",
"*  c #525B1E",
"=  c #56611F",
"-  c #58631F",
";  c #474222",
":  c #4A4523",
">  c #4D4B23",
",  c #4C4629",
"<  c #4E4A29",
"1  c #514D25",
"2  c #524E2A",
"3  c #584F2E",
"4  c #4E5222",
"5  c #4F5824",
"6  c #4F5028",
"7  c #535424",
"8  c #585626",
"9  c #555B24",
"0  c #595D25",
"q  c #56552D",
"w  c #55532A",
"e  c #595629",
"r  c #585729",
"t  c #58552A",
"y  c #59562B",
"u  c #58572B",
"i  c #58562D",
"p  c #59562D",
"a  c #58542E",
"s  c #59542E",
"d  c #59552F",
"f  c #59572E",
"g  c #5A572E",
"h  c #59552C",
"j  c #555829",
"k  c #565829",
"l  c #565A28",
"z  c #575B28",
"x  c #575B29",
"c  c #57592A",
"v  c #575A2B",
"b  c #57582C",
"n  c #565B2A",
"m  c #595828",
"M  c #5A5929",
"N  c #5B5929",
"B  c #5B5B29",
"V  c #59582A",
"C  c #5A592B",
"Z  c #585A2B",
"A  c #5B5A2A",
"S  c #5C5B2B",
"D  c #5D5B2B",
"F  c #585C29",
"G  c #595E28",
"H  c #5A5F29",
"J  c #585C2A",
"K  c #595D2B",
"L  c #5A5C2A",
"P  c #5B5D2B",
"I  c #5A5E2B",
"U  c #5D5D29",
"Y  c #5F5F2B",
"T  c #59582C",
"R  c #58592D",
"E  c #5A592D",
"W  c #595B2C",
"Q  c #5B5A2C",
"!  c #5A582F",
"~  c #5B5A2E",
"^  c #5D5A2D",
"/  c #5C5B2D",
"(  c #5C5B2F",
")  c #595C2D",
"_  c #5A5E2C",
"`  c #5B5F2C",
"'  c #5B5F2D",
"]  c #5A5D2E",
"[  c #5B5D2E",
"{  c #5D5C2C",
"}  c #5D5F2D",
"|  c #5C5E2D",
" . c #5D5C2E",
".. c #5E5D2F",
"X. c #5A5C2B",
"o. c #544D31",
"O. c #555231",
"+. c #575330",
"@. c #575231",
"#. c #595530",
"$. c #5B5531",
"%. c #595730",
"&. c #5A5630",
"*. c #5B5630",
"=. c #5A5631",
"-. c #5B5731",
";. c #5C5632",
":. c #5A5531",
">. c #565830",
",. c #5B5932",
"<. c #5C5A31",
"1. c #5C5A33",
"2. c #5D5C30",
"3. c #5E5D31",
"4. c #5D5F30",
"5. c #5F5E30",
"6. c #5E5C33",
"7. c #5F5E32",
"8. c #5C5835",
"9. c #5E5834",
"0. c #5C5B32",
"q. c #5E5E3A",
"w. c #605E2E",
"e. c #605F2F",
"r. c #615E31",
"t. c #605F33",
"y. c #625F32",
"u. c #605E34",
"i. c #576123",
"p. c #5A6325",
"a. c #5E6826",
"s. c #57602A",
"d. c #5F622D",
"f. c #5F612F",
"g. c #5E622F",
"h. c #5C632B",
"j. c #5F692B",
"k. c #5E6031",
"l. c #5F6330",
"z. c #5E6230",
"x. c #616727",
"c. c #616B26",
"v. c #60602E",
"b. c #62622E",
"n. c #61652D",
"m. c #626A2C",
"M. c #66712E",
"N. c #636131",
"B. c #616331",
"V. c #636331",
"C. c #616032",
"Z. c #616533",
"A. c #646430",
"S. c #646432",
"D. c #626433",
"F. c #646B31",
"G. c #696D33",
"H. c #65623C",
"J. c #6A6C3B",
"K. c #6A7239",
"L. c #6E783C",
"P. c #717B3F",
"I. c #737C43",
"U. c #85855F",
/* pixels */
"b.A.f.B.P z f.7 P z 8 7 V R w 2 2 %.%.2 > 7 j 8 8 V } f.f.f.P 7 O o O 8 V 8 u 2.2.u w w w 2 +.%.w 7 7 k } S V b.b.B.w.S t.t./ u ",
"8 Y } P 7 k Z.` z z 7 7 j j w 2 2 ;.9.i w w j 7 7 8 } P k 7 7 7 7 7 7 8 V } R j u 7 > > > > 2 q j V k k V 8 8 8 b.A.B.V 7 7 7 8 ",
"8 Y P k 4 7 ` k O 7 8 8 R i w w 2 2 w 2 2 w q w > 7 R R j 7 8 R 2.2.R u u R u 7 V 8 7 1 1 1 w j j R z 7 7 7 7 8 V } R 8 1 > 7 R ",
"8 8 8 8 7 7 4 o o 7 k z i q w w 2 2 : . : 2 w w > > 7 j j j j b 2.i q R u 7 8 R } } V u 8 8 j j 7 j 7 4 7 7 7 7 7 7 O > 7 7 j 2.",
"7 O 4 j j 7 o o z ` V 7 1 > 2 +.9.w > : > 2 2 < > > > w w > > > w > > 1 w i / B.V V V V 8 8 8 8 8 j 4 > 7 7 $ O 7 4 O 4 w w w q ",
"7 7 z R R 7 > w R ` R 7 1 > > 2 w < > 2 w w > ; > < q q w > > > 2 1 > : 2 2.2.V 7 7 8 j j 7 8 V ` z 7 7 z z 7 7 7 j j z R j 7 j ",
"V / t.u i j > w 1 j i i a w < > > : > w %.w > : > w q q w w w w w w 2 > w R R 7 j 7 7 u u 1 7 / l.n k P f.` k P 7 z z z ` ` z j ",
"V } 2.1 w %.> > 2 q i i %.w 2 2 2 1 w i %.w w w 2 1 > > 6 j w > 2 w q i w w j ,.1.w w %.w 1 2 1.2.z k P f.z 9 P 9 k 7 7 P ` k 4 ",
"7 8 j j w w 2 > 1 w i 1 2 w 2 : . 7 u.u.R i w w i R w > 7 j 1 O 1 i w 1 j %.q q 9.w < 2 2 < 2 w 7 P j.P h.n.p.F.h.z 0 9 7 k 7 $ ",
"O O > > w q w 1 1 2 1 : : > 2 > > 1 R 2.R j > 7 H.C.R R R 7 1 7 7 R j > 7 q w w 2 , , 2 2 , , > 7 P F.Z.n.F.h.n.i.0 h.p.9 0 9 & ",
"o . . > > < 2 2 w w 2 > : > 2 2 i 8 R / R 8 O 7 C.2.R R R 7 7 j 1 8 1 O 1 w i %.2 , ; , ; ; ; , 7 7 p.h.p.h.p.p.i.9 i.p.h.h.z 9 ",
"O o > > : ; : 2 9.%.a w 2 1 2 w u / t.V u R 7 1 8 V j 7 8 8 7 7 O 7 > o > 2 w w 2 , ; ; ; ; , 2 > o 7 k 9 9 0 9 9 & * 9 h.h.9 9 ",
"j 7 w w 2 : , 3 ;.a w a 2 1 > 1 > 7 R j j R j j 7 8 7 7 8 8 7 7 7 7 7 O X : : : : ; : < 2 2 3 2 o o 7 P V k k & & & & & 0 i.9 0 ",
"/ w 7 w w 2 2 3 2 1 1 2 2 1 > 1 > o 1 7 7 > > w 7 > > V t.V 7 8 j 8 j 7 > > : X > > > 2 2 2 2 1 > > 7 V k $ 7 & P 9 & # h.n.9 * ",
"V 7 1 2 2 2 2 2 2 1 1 2 a w 2 > > X > > > > o 7 1 > 7 / B.V 7 u j j R u 1 1 w 1 w 2 1 2 2 2 2 1 w w > w 7 o O 7 Y f.0 & n.F.9 9 ",
"u 8 7 1 > > 2 a 2 2 2 a ;.i 1 : X > 1 > O 7 7 7 > j R / 2.R 7 1 j 7 V R 7 7 w 2 2 1 > 1 t a 7 1 2 %.w i i o o 4 7 S.J.h.f.p.9 p.",
"7 4 7 u j > . . : w @.2 2 1 w 1 O 7 7 o 1 1 7 1 w w 2.u.1.%.2 i 7 S 8 / } j q 7 w 2 > 2 i w a a 2 2 w 2 > > 1 7 7 P l.g.9 9 0 z ",
"P 7 O O O > > w 2 2 2 < 2 > 1.t.8 V V 8 8 8 u R i 7 w w w w > 1 8 V + O 1 1 j w > w 1 1 2 1 w a a 2 1 : X > 1 7 z P f.n 7 7 7 $ ",
"j 7 $ $ 7 j i q %.2 < 2 2 , a w j z z V 8 7 7 1.w > > > 1 1 1 1 7 8 8 8 z 8 7 4 ,.2.w > 2 w w 1 R 7 7 1 > > > o 4 8 k 7 7 k k 7 ",
"7 j V V / / u 7 2 : > < :   > . > w w q 7 7 > j j w w 1 1 1 w 1.} f.P P } ` R b q b > > w u / R S V P V 8 7 7 O 7 k k 8 8 S / V ",
"b 2.2.R V V j 7 w 2 %.2 , : 9.i 2 q q q w w > 2 w %.i w > > t / } f.f.` l.l.z z 4 w 4 > > o 7 ` P h.j.p.9 k } l.} B.2.u u u u u ",
"w q j 8 8 8 V u 1.w w 2 @.%.H.8.w >.q w w w > > w a 2 1 1 1 g R 8 z ` R ` 2.w 7 j z 4 7 7 O 7 V 0 h.F.h.9 k f.B.} w.u 7 u 7 1 u ",
"> > 4 7 8 8 8 8 w > : > @.+.+.: w q w > < : ; > %.%.2 1 2 i H.u.2.z 8 > 7 b w j 7 7 O 7 ` } l.f.h.j.Z.f.9 9 P P V 8 > 7 i 7 > i ",
"q w > 4 7 7 7 > 1 1 2 2 @.: 2 w q w w > > . . > w i > : : 1 9.1.w 4 q 4 w b > > w R j 7 V P } V Z.n.} 8 $ 8 } } w.V 1 7 2.7 o j ",
"4 > o 4 V 8 7 8 2 2 2 2 +.+.2 2 7 7 w j w > : > 2 2 o.2 < : < 2 > > > > 1 w w 1 w 7 j 8 R 8 8 8 2.R 7 O O 7 j j z 7 7 7 8 7 > z ",
"j 4 O 7 V V j R w w 2 2 +.w 2 w V V V j j q q q 2 2 2 2 < , , 2 2 2 1 1 2 w w 2 w w R u } V V V u 7 > X > 1 j j > > 7 j j 7 4 z ",
"w 7 7 j S V 8 u 2 2 < < 2 2 2 i B.f.V 7 j ,.%.w 2 2 < < o.o.o.o.+.2 2 2 w 2 w w 1 2 u 7 8 7 7 7 7 > X X w 1.6.u.7 7 z R ` ) 9 g.",
"4 j V R S u 7 w > 2 < < 2 1 w R V P P k j i i w 2 < , < o.@.@.+.w w 2 w w a w w 1 1 7 1 7 o O O 7 1 > 1 w 1.H.J.2.b z z l.Z.z P ",
"7 8 8 8 R R w > 2 2 2 2 2 2 w / } B.S.B.j > 1 w w 2 < < 2 2 2 2 w q i i %.1.i 7 7 7 u u 8 O 7 V 7 u R j > > j B.} z 8 8 ` } 7 7 ",
"V k 7 O j 2.q < < 2 2 2 2 1 1 u S.l.} R j > > > 2 2 2 2 2 1 1 > w R / R 2.t./ 7 7 7 } } f.9 h.n.f.f.P k 7 7 7 7 7 7 j 7 8 7 O 1 ",
"Y Y 7 o 7 i w < < < < < 2 1 1 7 8 4 O > j ,.w < 2 2 w 2 2 2 2 1 4 7 z V ` / u 7 8 k } P j.p.h.i.j.p.z 9 g.Z.P 4 7 7 V 7 7 7 1 w ",
"V B.} 1 o > 2 2 2 2 2 2 a w t / o 4 7 7 w q q w > 2 w w w w 2 > O O 4 8 V 8 7 & k Y n.0 j.m.h.& 5 n p.n p.f.} 8 8 8 8 1 7 u w u ",
"u j u j w 1 > > > > w %.%.i w 1.q 4 4 w 7 7 w w 2 %.w 1 2 2 2 i R j 7 7 V V 7 7 7 9 z 9 9 h.m.n.z j 7 l.Z.P 8 7 8 S 8 V V 9 > 9 ",
"1.1.R w 1 > 1 w > > i i i 1.a i q w w w 7 4 7 1 w w 2 > 1 1 1 w / / V 8 8 8 7 7 9 k 0 P P f.h.P j w w > 7 k 8 7 + 8 8 } ` f.9 5 ",
"i 9.1.q > w R 2.j j R j 7 j 7 8 z z z z 8 4 1 > i w 2 1 2 2 > w 8 } f.f.} V 8 k 8 k k k k P P k R w 6.j ,.w 7 u + 8 V b.f.F.g.9 ",
"w 1.6.i j ` C.S.} j 8 7 7 V V Y 0 i.P P V 7 + > u w 2 w w 2 w ,.8 h.n.f.f.f.P } P k 7 4 4 j V j > H.U.6.6 w R 2./ V S } P j.j.9 ",
"q ,.,.q q 2.l.f.k $ & 8 0 b.n.G.0 i.i.0 h.8 7 O 7 > 2 w w 2 >.u.} h.i.9 0 h.f.f.V 8 8 7 > 7 b q q < q.: 6 < < w H.V S } P p.j.p.",
"w w 7 4 7 z P P k $ 9 p.n.p.0 p.a.m.p.i.n.f.8 8 8 7 w i 2 > w ,.k i.9 & 0 n.f.V 7 7 j j w w w 7 < ,.H.: < ,.6.,./ 7 8 P f.p.m.m.",
"7 4 7 5 7 9 k 9 0 9 h.h.0 & # & a.m.p.9 h.Y 8 S } j q q : > < w $ 9 z 9 n j.P k 7 $ 7 7 7 j j w i w w 6 q q w w > > 7 7 j.j.j.j.",
"k 9 k z z 9 & & z i.m.i.& & 9 h.i.h.0 # 9 9 7 / / 7 w w > > w 7 n h.z $ $ z P P 8 4 O 4 7 u } } H.C.b q q q w < > > 1 O f.g.p.z ",
"p.i.i.i.h.9 p.i.p.9 i.i.9 i.h.i.h.7 9 p.z z P V j 7 w R R z w j 5 9 5 5 n n z P 8 k 8 7 7 S B.b.} 7 4 7 w b >.> > q w 4 z ) n 9 ",
"a.a.a.m.m.i.h.h.9 & 9 i.p.h.j.z n n P f.l.n 8 z 7 b ` z z g.P 9 9 s.g.g.l.g.k k 8 k P P V b.A.b.8 7 7 j 7 z b w 4 w > o 7 ) n n ",
"p.c.a.m.p.p.h.a.h.p.h.p.z 9 9 5 5 9 $ $ b 7 o 4 7 ` g.z k h.g.z g.g.s.n p.z 9 9 z z Y h.P 0 0 & 8 7 7 8 7 z z 7 R j > o 7 l 4 5 ",
"p.M.m.a.= a.p.* 9 p.m.h.z 9 z s.z z 9 9 z 7 O 7 7 8 k 9 9 z i.h.g.n $ $ 9 z 9 9 & $ 8 0 0 9 8 8 8 7 + 7 z f.f.P B.} 4 4 z 9 4 4 ",
"j.M.a.a.* i.i.& # i.h.j.j.i.i.i.p.p.F.F.P 7 7 7 4 & 7 & & 9 i.j.9 9 & 9 i.i.9 9 0 9 k h.0 7 7 8 u 7 7 7 P j.Z.F.j.h.8 9 p.z 9 l ",
"i.i.* h.p.9 i.p.i.p.i.p.j.j.i.* h.& i.h.0 0 P 7 & 9 0 9 i.h.j.p.i.p.h.j.h.9 9 i.G.j.j.n.P 7 $ O w q w 7 k n i.m.h.m.h.i.h.i.z p.",
"9 9 i.j.m.9 i.h.h.h.i.9 h.m.a.a.a.* # * p.m.n.h.0 0 i.p.m.F.m.p.a.c.m.m.j.i.9 i.0 z p.Z.f.P k 7 2 w 1 4 z z 9 0 n.G.m.p.a.p.i.p.",
"P F.K.F.F.i.h.9 h.m.m.a.m.a.a.a.= a.p.p.m.h.h.F.m.9 9 h.m.h.p.p.M.M.m.m.m.a.& & & 7 P A.Z.} k 7 > > . O f.Z.i.9 i.m.m.a.a.a.i.i.",
"F.I.I.P.L.p.i.* i.a.a.p.p.a.a.p.p.a.m.M.m.p.a.m.a.i.i.a.p.p.a.p.c.a.* * a.n.0 9 k z V V b.} 8 Y b.& 9 9 h.h.m.0 * i.x.a.m.m.m.a.",
"j.K.j.m.F.h.j.p.= p.a.a.a.m.a.p.a.= * = p.a.p.i.* * * i.i.i.h.j.M.c.= * h.h.0 7 8 7 8 O 7 7 7 b.G.p.a.p.a.p.m.a.* * * i.j.m.m.p.",
"p.j.9 i.h.h.F.m.j.a.i.i.i.a.a.i.i.i.* * * i.h.h.i.i.i.i.i.h.m.m.m.m.a.i.0 9 8 P 4 8 z 4 O 7 7 P n.i.h.h.m.i.m.F.p.i.i.p.m.h.i.* ",
"9 i.i.p.z 9 m.m.m.a.i.* 9 i.i.9 9 h.h.9 # * h.m.j.9 & 9 i.h.j.p.p.i.i.0 9 $ 4 P 4 8 ` 8 7 k 8 P & @ & 9 h.9 i.i.j.h.m.F.m.0 & & ",
"9 i.h.h.9 & 9 9 i.i.i.i.h.i.* # i.h.p.z 9 i.j.p.i.9 % 9 z i.p.i.p.9 $ $ 7 7 $ 4 7 7 7 4 7 f.B.n.z 9 9 z j.9 9 9 p.i.p.j.j.i.z i.",
"z z z z 9 & $ # j.h.p.h.h.z & $ n p.p.z p.j.j.p.n z z z 9 9 z n k 7 $ $ 7 4 > 4 ` 7 7 7 k n.n.p.j.p.s.z m.h.p.p.j.z 9 z p.h.h.j.",
"P P 9 9 i.0 & 9 F.n.h.h.0 9 9 9 7 k P k k 0 l.F.P k z P k 7 7 7 7 k k 7 4 4 7 ` Z.k g.j.g.j.i.& 9 i.i.% i.i.p.h.j.i.9 9 z i.p.p.",
"0 P 0 9 h.i.9 j.h.0 0 h.h.z k n $ $ 4 $ 4 7 f.Z.f.k 7 P ` f.k 4 k P z 7 7 k P l.Z.z j.m.p.i.9 * i.j.F.i.p.i.i.p.i.i.9 % $ % 9 i.",
"7 9 9 9 p.j.h.h.n.h.P p.P 7 k P k $ 7 z k k f.f.f.` l.Z.f.k 7 $ k b.l.0 k 0 n p.p.h.i.p.i.a.i.i.p.a.p.p.p.p.h.p.j.p.i.i.9 9 & # ",
"$ $ $ $ P j.n.n.j.p.P 0 k k k P P 7 k P z g.f.P f.P f.f.z 7 7 & P n.j.9 & 9 9 9 i.i.9 i.i.m.a.p.p.p.p.i.i.p.i.9 h.p.p.i.9 9 9 z ",
"4 4 $ $ 9 P p.f.P P p.P k 7 7 k k P f.P $ & 9 7 0 k 0 f.f.P k & & 0 0 & & 9 z i.i.i.9 p.p.a.a.a.a.a.p.p.p.p.i.* m.m.m.m.i.9 0 h.",
"k z k $ 7 9 z P k z h.Z.f.k 7 7 k P P k & & k z P & 7 h.F.G.n.* & 0 0 0 i.h.h.m.i.p.p.j.p.- i.p.i.p.p.p.p.a.p.p.h.h.m.F.j.9 9 0 ",
"z ` P 7 7 9 z f.9 7 0 n.Z.0 9 0 P & @ $ 9 0 0 0 j.9 & 9 h.F.F.p.h.m.m.h.h.h.h.j.p.p.p.j.j.= * * * * i.i.i.i.h.j.9 9 9 i.0 9 & 0 ",
"7 P z 7 7 9 z p.z 9 9 i.p.k k 0 n.0 $ # z 9 & * p.0 0 0 0 p.h.i.m.m.i.9 9 i.i.i.j.i.p.p.m.j.p.* i.i.i.i.9 % & 9 h.z & & 9 9 k 0 ",
"7 z 9 9 n n z z p.p.z 9 9 i.p.p.F.F.m.h.h.i.& 9 9 i.h.a.9 9 i.i.9 9 * & i.i.i.i.p.i.h.p.F.m.m.p.p.p.i.i.z & $ $ n.p.9 9 k P P 0 ",
"j z 9 z g.l.g.p.p.j.p.9 z F.G.F.9 h.h.h.m.m.i.i.i.i.a.i.* i.a.a.i.i.i.i.j.j.p.i.9 i.m.p.j.h.F.j.p.i.i.p.j.h.i.z k k 9 k P } V 7 "
};
