/* XPM */
static char *result[] = {
/* columns rows colors chars-per-pixel */
"64 64 210 2 ",
"   c #0C0404",
".  c #140B0B",
"X  c #1A100F",
"o  c #191010",
"O  c #221615",
"+  c #261A19",
"@  c #2B1E1C",
"#  c #341F1C",
"$  c #32211F",
"%  c #2D2120",
"&  c #342523",
"*  c #3B2623",
"=  c #3D2826",
"-  c #3B2C2B",
";  c #362928",
":  c #412826",
">  c #442C29",
",  c #4A2E2A",
"<  c #49312E",
"1  c #45302E",
"2  c #53312D",
"3  c #59322E",
"4  c #463433",
"5  c #4B3634",
"6  c #543632",
"7  c #5B3531",
"8  c #553A36",
"9  c #5C3A35",
"0  c #563E3B",
"q  c #512F2B",
"w  c #633B35",
"e  c #6A3D36",
"r  c #653E38",
"t  c #6B3F39",
"y  c #65423C",
"u  c #6C433C",
"i  c #73453D",
"p  c #7A483F",
"a  c #79473D",
"s  c #584745",
"d  c #49515D",
"f  c #6F4740",
"g  c #654A46",
"h  c #6D4B44",
"j  c #634741",
"k  c #744B43",
"l  c #7B4C43",
"z  c #7A4F48",
"x  c #6D534E",
"c  c #67524C",
"v  c #74524B",
"b  c #7D544B",
"n  c #7A5349",
"m  c #6C5954",
"M  c #6F5750",
"N  c #7D5C53",
"B  c #755C57",
"V  c #7C615A",
"C  c #7E6056",
"Z  c #515A68",
"A  c #6F5F60",
"S  c #5C6371",
"D  c #7E6661",
"F  c #7C6866",
"G  c #656B76",
"H  c #814D43",
"J  c #845146",
"K  c #84544B",
"L  c #8B564B",
"P  c #84594E",
"I  c #8C594E",
"U  c #885246",
"Y  c #945C4F",
"T  c #90574B",
"R  c #845B52",
"E  c #8B5D52",
"W  c #875B54",
"Q  c #935E52",
"!  c #985F53",
"~  c #826056",
"^  c #8A6255",
"/  c #84645B",
"(  c #8C645A",
")  c #8C695D",
"_  c #86685E",
"`  c #946255",
"'  c #9B6456",
"]  c #93665B",
"[  c #9B6659",
"{  c #946B5C",
"}  c #9C6B5C",
"|  c #946857",
" . c #9B715F",
".. c #A36B5C",
"X. c #AA6E5E",
"o. c #A36658",
"O. c #A3725F",
"+. c #846A63",
"@. c #8D6D63",
"#. c #846C65",
"$. c #936D62",
"%. c #9B6D63",
"&. c #8F7066",
"*. c #8B726C",
"=. c #85726B",
"-. c #957264",
";. c #9C7364",
":. c #9E7867",
">. c #95746A",
",. c #9B766A",
"<. c #9C7A6C",
"1. c #94786F",
"2. c #8D7972",
"3. c #937A73",
"4. c #9B7C72",
"5. c #A36E60",
"6. c #AA6F60",
"7. c #A47463",
"8. c #AB7564",
"9. c #A37966",
"0. c #AB7A66",
"q. c #A4766C",
"w. c #AA7669",
"e. c #A47C6B",
"r. c #AC7C6A",
"t. c #B27665",
"y. c #B37A67",
"u. c #B37D6B",
"i. c #B67C6B",
"p. c #A27D71",
"a. c #A97D71",
"s. c #B27E71",
"d. c #9B827A",
"f. c #9E8075",
"g. c #AC816C",
"h. c #A5806F",
"j. c #B3836E",
"k. c #BA836E",
"l. c #A48174",
"z. c #AC8473",
"x. c #A4867B",
"c. c #AB867A",
"v. c #AC8A7C",
"b. c #AF8977",
"n. c #B48572",
"m. c #BA8571",
"M. c #B48A73",
"N. c #BB8B75",
"B. c #B38479",
"V. c #B9867A",
"C. c #B48B7C",
"Z. c #BC8D7A",
"A. c #BB9077",
"S. c #BD927B",
"D. c #B6927F",
"F. c #C08D76",
"G. c #C28D7A",
"H. c #C2947C",
"J. c #C9947E",
"K. c #C4987F",
"L. c #587792",
"P. c #657E95",
"I. c #697483",
"U. c #517FA4",
"Y. c #5784A7",
"T. c #5688AF",
"R. c #6789A6",
"E. c #6892B4",
"W. c #7A97B1",
"Q. c #9D8781",
"!. c #AC8D84",
"~. c #A28A83",
"^. c #B28E82",
"/. c #BD8D83",
"(. c #B39283",
"). c #BC9582",
"_. c #B49388",
"`. c #BD9C8D",
"'. c #BE9886",
"]. c #AE9084",
"[. c #BCA497",
"{. c #C38E82",
"}. c #C39581",
"|. c #C99681",
" X c #C59A83",
".X c #C99D84",
"XX c #C49D8A",
"oX c #CB9D8A",
"OX c #C39688",
"+X c #CC9D91",
"@X c #D09F94",
"#X c #CCA087",
"$X c #CCA28B",
"%X c #C6A08B",
"&X c #D0A68D",
"*X c #D2A88F",
"=X c #CEA591",
"-X c #CAA797",
";X c #D2A593",
":X c #D3AB93",
">X c #D4AD9B",
",X c #DAB59D",
"<X c #D6B199",
"1X c #D5BAAB",
"2X c #DEC8B6",
"3X c #E6D1BE",
"4X c #92ABC2",
"5X c #E7D3C2",
"6X c #F2E3D2",
"7X c None",
/* pixels */
"7X7X7X7X7X7X7X7X7X7X7X7X7X7X7X7X7X7X7X7X7X7X7X7X7X7Xx.&.) _ ) _ @.{ ) 7X7X7X7X7X7X7X7X7X7X7X7X7X7X7X7X7X7X7X7X7X7X7X7X7X7X7X7X7X",
"7X7X7X7X7X7X7X7X7X7X7X7X7X7X7X7X7X7X7X7X7X7X7X<.*.{ ^ ^  . . .|  .h.h.g.h.@._ d.7X7X7X7X7X7X7X7X7X7X7X7X7X7X7X7X7X7X7X7X7X7X7X7X",
"7X7X7X7X7X7X7X7X7X7X7X7X7X7X7X7X7X7X7X7X&._ _ / { | {  . . . .O.O.h.M. .:.h.-.C / >.@.=.7X7X7X7X7X7X7X7X7X7X7X7X7X7X7X7X7X7X7X7X",
"7X7X7X7X7X7X7X7X7X7X7X7X7X7X7X7X7X7Xd.) _ >. . .9.h. .9.O.g.g.|  .g.g.h.g.j.) -.{ &.-.,.>.7X7X7X7X7X7X7X7X7X7X7X7X7X7X7X7X7X7X7X",
"7X7X7X7X7X7X7X7X7X7X7X7X7X7X7X7X7X2.@.) &.C / C C :.g.A.h.g.g.M.M.h.| h.g.z. .z.&.<./ +.>.4.3.7X7X7X7X7X7X7X7X7X7X7X7X7X7X7X7X7X",
"7X7X7X7X7X7X7X7X7X7X7X7X7X7X7X~.{ ) ~ { :.{ 9.@.:. . .M.M.O.) g.g.N  .h.A.b.b.h.x.<.V &.*.$.4.7X7X7X7X7X7X7X7X7X7X7X7X7X7X7X7X7X",
"7X7X7X7X7X7X7X7X7X7X7X7X7X7Xd.@.) / / g.:. ._  .:.| h.M.A.j.g.g.g. .h.h.K.K.g.:.M.$.l.( e._ *.3.7X7X7X7X7X7X7X7X7X7X7X7X7X7X7X7X",
"7X7X7X7X7X7X7X7X7X7X7X7X7X7X@.^ 9.~  .g. .C { h.h.g.M.A.H. . .A.C M.h.h.A.A.A.{ :._ >.#._ -.@.$.+.7X7X7X7X7X7X7X7X7X7X7X7X7X7X7X",
"7X7X7X7X7X7X7X7X7X7X7X7X7X3.-.-./ ;.h.h.n ^  . .j.A.9.Z.z.<.M.l.h.M.S.M.N.A.g.g.h.9.~ P 3.4.) +.p.d.7X7X7X7X7X7X7X7X7X7X7X7X7X7X",
"7X7X7X7X7X7X7X7X7X7X7X7Xf.@.9.} ^ :.g.) N :.g.M.A.N./ %.l. Xg.-.g.A.g.A.N.g.K.j.M.9.) { +.+.p.R a.;.7X7X7X7X7X7X7X7X7X7X7X7X7X7X",
"7X7X7X7X7X7X7X7X7X7X7X7X<.:.| +.:.{  .{ _ h.A.F.Z.j.@.;.j.N.e./ h. .A.M.0.A.M.A.g.M. .-.e.V +.@.N e.4.7X7X7X7X7X7X7X7X7X7X7X7X7X",
"7X7X7X7X7X7X7X7X7X7X7X].<. ._ -.g.{ C  .A.A.A.A.m.9.;.n.N.m.;.z.h.h.A.z.M.j.A.M.M.g.j.) e.9.D #.$.#.r.7X7X7X7X7X7X7X7X7X7X7X7X7X",
"7X7X7X7X7X7X7X7X7X7X7Xe.{ -._ 9.N / | M.H.K.M.K.:.;.^ ` o.8.I k. .:.K.j.j.g.A.j.j.g.n.} ;.;.R ;.V ,.<.x.7X7X7X7X7X7X7X7X7X7X7X7X",
"7X7X7X7X7X7X7X7X7X7X7X-.| C ^ 1.-.{ h.M.r.u.N.-.z..X-.N.g.} ` O. .g.m.M.S.O.N.A.j.m.7.r.-.,.9.@.>.#.@.a.7X7X7X7X7X7X7X7X7X7X7X7X",
"7X7X7X7X7X7X7X7X7X7Xl.) V C ~ { { :.0.M.j.K.&.7.u.k.7.S.Z.g.9.e.9.{ K..XK.N.k.y.r.M.N.S.:.:.n.C./ *.N $.!.7X7X7X7X7X7X7X7X7X7X7X",
"7X7X7X7X7X7X7X7X7X7X:.C C { | 9.{ M.j.A.A. . XM..X( ` X.w.9.8.M./ M.A.F.t...m.A.F.m.j.t.8.b c.C.p.@./ ,.v.7X7X7X7X7X7X7X7X7X7X7X",
"7X7X7X7X7X7X7X7X7X7X$./ { $.( e.e.N.m.r.I O.O. .v.j.H.S.0.I ..6.| u.8.k.H.F.m.t.o.r.n.0.Z.oX-.C.).V N 4.).7X7X7X7X7X7X7X7X7X7X7X",
"7X7X7X7X7X7X7X7X7Xv.&.) 4.^ :.,.C.N.8.| 9.#XN.{ I } 7.j.k.g.g.e.:.J. XH.k.8.u.S.K..XOX9...8.,.v./.{ B +.V.3.7X7X7X7X7X7X7X7X7X7X",
"7X7X7X7X7X7X7X7X7Xp.l.<.-.;.:.>.b.0.e.K.j.K.K.,.). Xj.O.| k.K.-.M.#X XK.H.#X}.#X#Xk.' m.e.S.M.,.a.a.v +.4.~.7X7X7X7X7X7X7X7X7X7X",
"7X7X7X7X7X7X7X7X7Xf.C.p.e.e.( v.e.b.u.X.O.t...) M.S.}.:. Xr.j.{ $X$XN.S.#X X$Xm.` g.H.}.).Z.D.M.q.a.b B @._.7X7X7X7X7X7X7X7X7X7X",
"7X7X7X7X7X7X7X7X7X<.c.e.,./ P c.C.M.S.A.N.K.A.N m.N.N.H.N.S.#X_ Z.*XJ.j.}.}.8.y.N..X.X X[ ` } } $.<.W N 4._.7X7X7X7X7X7X7X7X7X7X",
"7X7X7X7X7X7X7X7X7X4.x.4._ e.R e.M.S..X#XA.S.H.9.N.H.S.#X8.' H.$..X&X.XS.t.t.G..X.XK.N.` M.N.S.D.,.$.%.( +.Q.7X7X7X7X7X7X7X7X7X7X",
"7X7X7X7X7X7X7X7X7X*.+.@.e.z.] ,.A.S.K.K.N.N.D.H.H. XH..XS.H.j.} H..X#Xk.k..XH..X XN.0.H.H.K..XD.}.4.;.W F 3.7X7X7X7X7X7X7X7X7X7X",
"7X7X7X7X7X7X7X7X7X1.-.1.e.e.) e.`.A.F.H.n.S.e.S.H.H.r. XN. XS.N.F.*X.X` H.r.N.H.N.K.m.}. X.XN.n.XXn.q.$./ 3.7X7X7X7Xa.Z.7X7X7X7X",
"7X7X7X7X7X7X7X7X7Xl.( R | -.+.D.g.g.A.H.N.-.K.m..X.XM.n.N.j.<.#X[ *X&Xo..Xj.H..X.X#Xe. Xi.t.u.u.B.Z.~.%.$.2.7X7X7Xw.{.;X/.+X7X7X",
"7Xz.r.j.u.,.7X7X7X#.k b ] %.) }.g.A.H.M.-.n.H.S..X.XS.A..Xz.<.z.O..X&XY *X#X.X.X.X.XN.[ k. XZ.Z.S.).^.%.%.2.7X7XK G.+XW r W Z.7X",
"7X1XS.m.m.i.w.` 7X*.j b P >.R D.A.K.A.:.N..Xj.j.H.K.H. X#X(.H.n.} H.&X} $X.XH.#XZ.#XF.u.H.H. XXX$XXXC.,.q.2.7Xw w.@X%.%.k 8 q.7X",
"7Xg.^ $.a.Z.s...L , 9 k l p.$.S.A.S.S.;.H.M.J.u.0.H..Xm.).XX XN.O.S.$Xr.<X.Xj.}.n.}.H.N.#X#X&X.X=XXX{.@.$.*.x W {.V.E +X%.6 OX7X",
"7XC.y 9 f y r 7.w.` 5 w b ` ^ H.A.A.M.K.h..X#XH.0.n. X:.S.&X.XS.0.n.H.S.,X,X#Xn.m.H.H.N.$X}.#XOXXXOX$X4.%.+.R s.+Xq.%.B.;Xj 7X7X",
"7XC.i R K r f y 7.6.z , Q ,.} $X#XS.h.K.C.K.K.H.M.r.-.S.}.u.$X.Xe.n.H.S.,X$X X..H.}. X}.$XOX7.R %.m.%Xb.%.+.+.a.OX+XB.s.@XW 7X7X",
"7X7Xu z.E i t b f 8.Q 2 } ] @.$XK.M.M.j.j.A.K.#XXXe.m. XZ.S..XK...H.N.m.*X:X0.m..X XoX}.9.k Q ] N k V.).,.%.*.@.l i I V.oX,.7X7X",
"7X7Xk B.I [ U 7 , b 5.9 e.$.%.XXM.E y , j 6 b j.K.n.#X.X Xk.A.N.L #XH.u.#XH.' H.#X Xn.x R r.*.B r.v R V.%.] &.B z u e I {.B.7X7X",
"7X7XW [.M.Q , * > $ I a g.g.c.j.K 3 U W @.s 0 > y k.F..X#X} 8.O.0.$X#XG.r.Q 8.H.m.k u $.I.Y.E.P.>.] k w.e.p.N D N t w Y 6.7X7X7X",
"7X7X7Xv.m.u $ $ > < < u O.g.h.P g { 6 c G R.d T.Z & w | k.0.u J m..X}.y.2 H | u & E g U.4X; E.W.`.h ( %.;.S.+.D N r 7 6.).7X7X7X",
"7X7X7XR S.r @ @ = 4 > / g.g.g.k ;.9 B m Y.R.; Y.E.s j > * $ O , u.H.;XoXr 7 . : l `.s T.E.d T.L.z.` h r.^.D.>.+.x r l /.7X7X7X7X",
"7X7X7Xb D.i @ + * 4 : h.O.g.D.^ e 9.` | G L.P.S A B P h 6 8 X   Q H..X[ > X 6 7 8 s.m Z S F @.6.s.V.f s.}.C.b.F j t w.+X7X7X7X7X",
"7X7X7X-.{ ..* O + s j h.M.M.A.:.< q.Q ..t.y.i.i.O.R K 3 5 1 8 O H |.:XF.: * : q t H ' o.B.r.G.{.F.u.K N.oX$X].+.x i /.7X7X7X7X7X",
"7X7X7X7Xn ..b @ X - f.D.A.S.K.$Xq.' o.` } | ..........J < 9 y 3 o.&X*X.Xt l 6 * e T o.! 6...6.w.s.w.[ }.;XXXD.B n Z.-X7X7X7X7X7X",
"7X7X7X7XO.y | P & o M -X'.K.%XK.#XQ } ..8.8.8.8.y.Q 9 w b p U T X.&X#XJ.o.X.o.f q w L ..8.y.i.y.w.' m.=X>X:X(.#.a.OX1X7X7X7X7X7X",
"7X7X7X7Xn.O.u Q E % + -XS.S.#X#XoX|.8.H H H Y H p l [ o.0.t.} ..G.#X|.J.y.s.i.t.L l k b P L I E [ N.$X;X<X-XD._.^.`.7X7X7X7X7X7X",
"7X7X7X7X7Xg.} u I I P <.(.'.K.#X&X&X:X Xr.t.u.w.t.k.J.J.J.H p O.J.J.#XJ.s.7 U s.m.}.8.N.M.s.=X$X$X&X:X:X>X=Xp._.!.^.7X7X7X7X7X7X",
"7X7X7X7X7X7Xg.} p L }  .'.%XS.$X&X<X*X*X.XG.F.F.J.K.*XJ.' y m.J.G..X&X|.G.m., H w.}.&X}.H.;X.X:X*X&X*X=X>X$Xc.[.+X7X7X7X7X7X7X7X",
"7X7X7X7X7X7X7Xl.7.Y S.} e.D.S. X&X*X<X*X:X*X#X#X&X*XJ.i.2 k O.j.*X;X@X#X+XoX%.6 a 5.N.*X#X#X=X#X&X:X=XXX=X7X7X7X7X7X7X7X7X7X7X7X",
"7X7X7X7X7X7X7X7Xc.8.%X0.} :.M.A. X$X,X<X:X:X XH.K.K.j.i ` P u w t.J.J.G.y.P } r.6 a O.J.:X#X.X:X#X$X#XXX7X7X7X7X7X7X7X7X7X7X7X7X",
"7X7X7X7X7X7X7X7X7X`.H.0.} { { r.j.A.S..X X.XA..X#Xk.a z n.m...9 q X.F.' 3 a.7.u.r.q U n.H. X#X=XK.).D.Z.7X7X7X7X7X7X7X7X7X7X7X7X",
"7X7X7X7X7X7X7X7X7X7Xz.-.| P k P O.j.j.N.m.k.S.K.F.[ i 0. X XN.0.H U | z !.] B.`.=X5.e ' j.N.oX$XN.r.%.7X7X7X7X7X7X7X7X7X7X7X7X7X",
"7X7X7X7X7X7X7X7X7X7X7X7X7X7X-.y n O.0.r.g.j.#XH.y.9 0.m.H..X.XN.i...8.}.XXZ.).oX:X$XE p ' N.Z.oXa.Q ^.7X7X7X7X7X7X7X7X7X7X7X7X7X",
"7X7X7X7X7X7X7X7X7X7X7X7X7X7X7X{ y k P O.X.j.H.N.u ` 7.m.k. X|.Z.N.m.H.8.}..XoX:X>X>X=X` L u.S. XE c.=X7X7X7X7X7X7X7X7X7X7X7X7X7X",
"7X7X7X7X7X7X7X7X7X7X7X7X7X7X7Xe.W r n R 8.0.M.O.H | J p ^ u.m.H.N.u.m.N..X}.Z.OXoX+X.X.Xw w.V.%.a./.-X7X7X7X7X7X7X7X7X7X7X7X7X7X",
"7X7X7X7X7X7X7X7X7X7X7X7X7X7X7Xx.{ k u E 7.0.g.Y T J 3 : > y k E R K E I P K i k K u.OX=Xr r.a.,.^.+X7X7X7X7X7X7X7X7X7X7X7X7X7X7X",
"7X7X7X7X7X7X7X7X7X7X7X7X7X7X7X7Xe.N u R 7.;.8.` | 7 o (.2.- s - & ; - =.#.4 s 1X* u q..XH Z.%.s.}.=X7X7X7X7X7X7X7X7X7X7X7X7X7X7X",
"7X7X7X7X7X7X7X7X7X7X7X7X7X7X7X7Xz.$.b n } 0.0.} [ &   d.5X- 2X[.@ % c 5X6X@ m 5Xo * f V.L n.<.Z.:X7X7X7X7X7X7X7X7X7X7X7X7X7X7X7X",
"7X7X7X7X7X7X7X7X7X7X7X7X7X7X7X7X7Xe.] P  .j.j.O.k 7   + 1X+ - 4 + + + 4.5X; - & . M u V...w.^.OX-X7X7X7X7X7X7X7X7X7X7X7X7X7X7X7X",
"7X7X7X7X7X7X7X7X7X7X7X7X7X7X7X7X7X:.:.I ^ j...0.R u , : 0 - & - @ & ; % 4 & & & , 9 P G.5.r.OXoX7X7X7X7X7X7X7X7X7X7X7X7X7X7X7X7X",
"7X7X7X7X7X7X7X7X7X7X7X7X7X7X7X7X7X7X^ ` K j.' O.8.k R 6 7 6 w f w z u u w e e t +.E a.s.j.s.XX7X7X7X7X7X7X7X7X7X7X7X7X7X7X7X7X7X",
"7X7X7X7X7X7X7X7X7X7X7X7X7X7X7X7X7X7X7X^ I 0.k.Q 0.0.} ` ] ( k r z b R %.P >.%.w.s.V.{.m.oXa.7X7X7X7X7X7X7X7X7X7X7X7X7X7X7X7X7X7X",
"7X7X7X7X7X7X7X7X7X7X7X7X7X7X7X7X7X7X7X7X| ^ m.Y o.g.g.O.} } } ' Q L ` ..0.0.M.N.}.V.G.|.OXV.7X7X7X7X7X7X7X7X7X7X7X7X7X7X7X7X7X7X",
"7X7X7X7X7X7X7X7X7X7X7X7X7X7X7X7X7X7X7X7X7Xl 9.k.U O.g.g.g.O.Q p l p i Y m.K. XH.H.s.Z.}.}.7X7X7X7X7X7X7X7X7X7X7X7X7X7X7X7X7X7X7X",
"7X7X7X7X7X7X7X7X7X7X7X7X7X7X7X7X7X7X7X7X7X7XP N.j.a | O.O.X.X.O.k.m.N.8.! i.H.N.Z.OX}.OXS.7X7X7X7X7X7X7X7X7X7X7X7X7X7X7X7X7X7X7X",
"7X7X7X7X7X7X7X7X7X7X7X7X7X7X7X7X7X7X7X7X7X7X7X9.H.O.T Q o.O.N.K.H.H..X:X#Xk.i.}.>X%XOX7X7X7X7X7X7X7X7X7X7X7X7X7X7X7X7X7X7X7X7X7X",
"7X7X7X7X7X7X7X7X7X7X7X7X7X7X7X7X7X7X7X7X7X7X7X7Xg.M.j.g.M.N.N.F.K.&X:X*X*X*X;X<X$X=X7X7X7X7X7X7X7X7X7X7X7X7X7X7X7X7X7X7X7X7X7X7X",
"7X7X7X7X7X7X7X7X7X7X7X7X7X7X7X7X7X7X7X7X7X7X7X7X7X7XO.0.j.A.k.A.A.H.#X#X#X*X.X&X7X7X7X7X7X7X7X7X7X7X7X7X7X7X7X7X7X7X7X7X7X7X7X7X",
"7X7X7X7X7X7X7X7X7X7X7X7X7X7X7X7X7X7X7X7X7X7X7X7X7X7X7X^ 9.M.j.M.O.9.M.K.K.;X$X7X7X7X7X7X7X7X7X7X7X7X7X7X7X7X7X7X7X7X7X7X7X7X7X7X",
"7X7X7X7X7X7X7X7X7X7X7X7X7X7X7X7X7X7X7X7X7X7X7X7X7X7X7X7X7X| { ^ N u } z.7X7X7X7X7X7X7X7X7X7X7X7X7X7X7X7X7X7X7X7X7X7X7X7X7X7X7X7X"
};
