/* XPM */
static char *_87c925b00104130d24e01f795794425L4atkgbVdtp96K9V[] = {
/* columns rows colors chars-per-pixel */
"64 64 205 2 ",
"   c None",
".  c #010E00",
"X  c #170700",
"o  c #190700",
"O  c #140E01",
"+  c #1A0E01",
"@  c #150F0F",
"#  c #0E1304",
"$  c #0F1B0A",
"%  c #0E1C05",
"&  c #151304",
"*  c #1B1404",
"=  c #151A03",
"-  c #1A1A06",
";  c #15150B",
":  c #1B160B",
">  c #151B0C",
",  c #1C1B0C",
"<  c #1B1513",
"1  c #151C11",
"2  c #1C1D12",
"3  c #1C1C18",
"4  c #171612",
"5  c #211505",
"6  c #241804",
"7  c #20170A",
"8  c #231C0C",
"9  c #2A1E0C",
"0  c #381E0D",
"q  c #221E12",
"w  c #291E12",
"e  c #1E2507",
"r  c #15220C",
"t  c #1D220E",
"y  c #162214",
"u  c #1C2213",
"i  c #1E2917",
"p  c #1D251C",
"a  c #1D291E",
"s  c #162718",
"d  c #25210E",
"f  c #2A210F",
"g  c #34230E",
"h  c #242214",
"j  c #2C2414",
"k  c #222B15",
"l  c #2F2816",
"z  c #232519",
"x  c #2C261A",
"c  c #252A1B",
"v  c #2E291A",
"b  c #322515",
"n  c #3C2515",
"m  c #322917",
"M  c #3C2A15",
"N  c #332719",
"B  c #342C1B",
"V  c #3A2E1D",
"C  c #3F2518",
"Z  c #28331A",
"A  c #36311D",
"S  c #3A311E",
"D  c #3B3116",
"F  c #1F2A20",
"G  c #242F25",
"H  c #202622",
"J  c #352E21",
"K  c #392F21",
"L  c #2C3123",
"P  c #2C342C",
"I  c #2E382F",
"U  c #353123",
"Y  c #3C3423",
"T  c #3D3A25",
"R  c #3D3529",
"E  c #343A2E",
"W  c #3E3A2A",
"Q  c #373328",
"!  c #46210F",
"~  c #442D1C",
"^  c #422814",
"/  c #562D18",
"(  c #42331E",
")  c #4D301F",
"_  c #42381D",
"`  c #63331B",
"'  c #413524",
"]  c #433926",
"[  c #4A3A25",
"{  c #423729",
"}  c #443B2A",
"|  c #4A3D2C",
" . c #483322",
".. c #513728",
"X. c #543D2B",
"o. c #593824",
"O. c #423E32",
"+. c #4B3E30",
"@. c #653F2C",
"#. c #3D422A",
"$. c #384126",
"%. c #3F4A3B",
"&. c #3B4635",
"*. c #45422C",
"=. c #4B412E",
"-. c #46452B",
";. c #51432F",
":. c #5D422E",
">. c #454232",
",. c #4C4332",
"<. c #4D4936",
"1. c #4C463B",
"2. c #4E4A3A",
"3. c #464738",
"4. c #524534",
"5. c #534935",
"6. c #5A4B36",
"7. c #504738",
"8. c #534C3A",
"9. c #5A4D3C",
"0. c #5F4431",
"q. c #5C503E",
"w. c #54563F",
"e. c #62482F",
"r. c #624D3C",
"t. c #724E39",
"y. c #774E37",
"u. c #6C543E",
"i. c #7F553D",
"p. c #4D4B41",
"a. c #554E47",
"s. c #535342",
"d. c #5D5241",
"f. c #525A4B",
"g. c #5C5957",
"h. c #625443",
"j. c #6A5C4B",
"k. c #695546",
"l. c #775D4A",
"z. c #785944",
"x. c #69604F",
"c. c #6F6252",
"v. c #7B6552",
"b. c #7E6D5D",
"n. c #766653",
"m. c #895C45",
"M. c #85624E",
"N. c #90644B",
"B. c #8A6D5A",
"V. c #886956",
"C. c #936753",
"Z. c #9B6D54",
"A. c #986E58",
"S. c #936C56",
"D. c #86715E",
"F. c #98725A",
"G. c #AC795E",
"H. c #967B6A",
"J. c #967864",
"K. c #A27F6C",
"L. c #9B8372",
"P. c #9E8C7C",
"I. c #978475",
"U. c #AF826B",
"Y. c #A28371",
"T. c #A38873",
"R. c #AE8A77",
"E. c #A58C7A",
"W. c #AD8C79",
"Q. c #AA8471",
"!. c #BC8E72",
"~. c #B68C76",
"^. c #AB927E",
"/. c #BE9575",
"(. c #C29375",
"). c #C69C7A",
"_. c #C8967A",
"`. c #AE9483",
"'. c #B99887",
"]. c #BFA08E",
"[. c #BBA494",
"{. c #C49C8A",
"}. c #C79A83",
"|. c #D99F87",
" X c #D49E86",
".X c #CEA086",
"XX c #DDA287",
"oX c #D3A38C",
"OX c #DCA98B",
"+X c #CBA491",
"@X c #C5A897",
"#X c #DCAB94",
"$X c #CBB09F",
"%X c #DDB49E",
"&X c #E3A78B",
"*X c #E7AB8F",
"=X c #E2AC95",
"-X c #E2AE99",
";X c #E9B399",
":X c #C3B2A2",
">X c #DCB4A2",
",X c #EEB4A0",
"<X c #F4BAA4",
"1X c #D5C0AF",
"2X c #ECC4B3",
/* pixels */
"                                                                                                                                ",
"                                                                                                                                ",
"                                                                      p a F                                                     ",
"                                                                    u > i . a                                                   ",
"                                                                  u t = r Z $ F                                                 ",
"                                                                E = u k r k u y G                                               ",
"                                                              I 1 z > > > r z i L I                                             ",
"                                                            p 1 1 p 3 u > c 2 u u 1                                             ",
"                                                        F y > > 3 3 < 3 3 2 1 > 2 > i                                           ",
"                                                      H 1 u 2 c < < 4 ; ; > 1 2 u > > k                                         ",
"                                                      1 2 2 # ; 2 q q 3 2 2 2 > 2 > u u                                         ",
"                                                    P c 2 & h , * , q q q 2 2 , & > i u c                                       ",
"                                                    z ; & , x O , , , > , h z z > ; # u i                                       ",
"                                                  E # c h 8 * 8 d 8 8 8 h h h u c = ; > r k                                     ",
"                                                  > u - & * 8 J 7 & O & , 2 h h h - t = t c                                     ",
"                                                G u , d =.b.[.1X:XP.c.+.B 8 , h t h = - - k                                     ",
"                                                c t * c.D.Y.'.%X+XR.F.B.v.j.S * d d d = = Z                                     ",
"                                                u , 8 P.H.z.Z.#X(.Z.S.t.J.^.E.4.* 7 B t = k                                     ",
"                                                u & + L.K.C.G.;X.XZ.N.m.A.Q.{.[.r.6 - , = %                                     ",
"                                                c * 6 `.+XoX_.XX)./.!.oXoXoX{.>X$X| & h i r                                     ",
"                                                c * 9 @X2X-XXX&X(.).OXOX<X,X-X>X@X5.* > > s                                     ",
"                                                U , X E.2X X&X*X).).;X;X;X=X-X'.H.;.- > y                                       ",
"                                                  z X v.2X#X|. X!.(.-X;X=X-X}.S.u.=.> > p                                       ",
"                                                  L 7  .W.C./ ` ` y.U..XoX~.S.u.[ 9.A > 1                                       ",
"                                                    U j ..) y.i.@.o.! o.M.l.X.:.[ n.B 2 u                                       ",
"                                                    s.j 4.`.W.R.Y.E.H.0.^ X.X.M 6.6.+ 8 E                                       ",
"                                                      B { b.v.l.n.D.I.j.n ~ ) 0 H.X.o w >.%.                                    ",
"                                                      W R b  .M b  .V b  .n 0 l.'.C o m p.f.                                    ",
"                                                    3.R Y B V b V M ~ n n ~ k.'.`.n V { W 3.&.%.                                ",
"                                                    } } B B b V g g M ^ ) z.Y.@XL.V { { Y 3.>.>.#.$.                            ",
"                                                *.*.T ,.{ B V | z.e.X.t.M.W.].L.| V } <.>.R ' } <.-.#.#.                        ",
"                                          s.8.T A -.8.{ { { V b u.Y.T.Y.R.V.:.M V =.T 8.8.B N V -.*.T Y *.>.                    ",
"                                    <.W U } Y j B <.8.K K b V b w | h.k.] 9 b b b V S 6.,.B b b A B B { { ,.2.2.                ",
"                                ,.-.,.Y B B B j B T { Y ' B N b x q 7 w j j V } '  .B ' ' l B Y S S R ,.W { ,.} ,.3.2.          ",
"                              <.,.T *.} } T { { B Y B { 6.d.+.B B K J J B w Y 8.9.4.Y B Y S ,.<.,.,.,.8.{ R } } 8.<.,.<.1.O.1.O.",
"                          g.3.3.| S *.,.8.,.8.3.B B B { 9.d.+.j 7 x J m j x } 4.d.,.K B j S ,.,.,.,.{ =.{ Y Y Y =.,.,.*.3.R W J ",
"                        a.p.1.T R S ,.=.,.R >.{ j j B R ,.' ] K j Y ,.Y w j +.{ ,.V V B 8 l >.Y Y =.{ ,.,.} Y { ,.*.{ A W J >.W ",
"                        R ,.| ] S ] ,.| Y m { { B B R B ' Y =.' J x Y Y K R ,.B R b { Y Y B >.Y l { ' | +.{ V Y j Y ,.*.| B ,.{ ",
"                      W ,.Y D _ ' | ,.| V B { R { } ' l B R | l J x U B l l | ' B m Y R ] Y Y R B ' { ,.{ } ' B 6 V 4.,.] B } Y ",
"                      T ,.S 6 M ] | | | Y B K l Y Y B l l Y { B x x B h B B { Y j B j Y S Y 8 Y l b ' 4.' | { 5 * 8 B ' ' ' ,.K ",
"                      Y { B + 9 | ' { b b f l q l B B B f B S Y { B l B Y Y Y B 8 S B S j d h l j f B | } } { 6 9 ] ' ] ,.| 9.' ",
"                      } { } b b { | { j ' ' B j 7 B ,.Y m Y ] ] R Y W Y { R ] V l Y <.j * l B Y } ' B ' +.{ B b V ] =.4.| 4.{ ,.",
"                    w.3.1.+.{ V b V B Y ,.,.{ Y l Y ,.R S | ' S R R } Y { Y { | Y Y d.Y l A Y =.,.| S j j 9 j ' S V ] 6.,.B K { ",
"                    T >.a.R Y V b b V ,.| | } R } { ,.{ B | m V Y B B B R m B { S ] { =.} Y T =.8.=.} Y B Y V V ] | 5.7.,.R ,.R ",
"                      <.8.,.{ ' V Y ' 4.,.8.,.{ ,.+.9.| V ' V { Y B m Y } Y V ' S 8.7.,.4.T ,.<.} ,.,.Y B l m A Y 5.=.m B ,.B J ",
"                      *.B ,.] b 9 b 6 Y 8.,.m j { ,.j.,.| { =.| R Y B Y | ,.=.| ] 6.x.R | j v R d.7.j 7 K B j B Y 8.Y B ,.R * J ",
"                      T A } { l j N 5 V 7.B * * Y { k.,.d.,.4.S Y B B m S { 4.,.d.,.c.Y Y 7 * j Y =.8 7 B 8 8 A Y *.A | 8.* : j ",
"                      T 3.B { B 9 b 5 j B 7 7 8 j B 4.4.h.| [ b ' B Y S ' V =.,.j.] 6.b j 6 * * j Y * : j 9 S A Y S ] ,.l 8 j 8 ",
"                      e T ,.B Y S S j l j * j Y ' S ] ' [ h.X. .{ { | { { Y q.6. .| ' Y Y Y 8 : 8 B 7 j Y B V Y l Y O.U , , h 7 ",
"                      = d B J B S { B * + w Y } | =.] =.( M 6.9.R Y { V | h.[ M (  .| 4.| ,.Y 8 * * 8 B '  .B Y B Y J q * > 7 8 ",
"                      = - d { Y S ] { j q B R 8.,.,.] =.] 9 q.h.R R R V ,.x.V g =.| | =.{ ,.>.Y q : B ' V { m S } { x ; , , , h ",
"                      = * , U B B B R R R Y J 2.,.| | ;.=.] 6.,.] q.8.| | 5.;.V ;.4.| =.8.,.R J U B { ] B | m Y { J , & * * * , ",
"                      = t , z U Y S Y Y J J Y { ,.| =.,.| ,.{ V 8.8.,.d.4.m | 5.4.4.| | 8.,.Y B J Y Y Y V ' B ] Y j , , , , q 8 ",
"                    e = > & & Q ,.] R Y v B J B B B j ] =.9.5.,.,.7.,.7.' =.5.=.4.Y V V Y Y R B v U B ' Y S B R j & & ; & ; 8 8 ",
"                    e , h , h W ,.B { { x x v v Y A j B | ,.| ' | ,.,.,.| 4.5.5.' b B V J B J x v B Y ] Y ' { R j 8 , q q 8 8 q ",
"                    = t z h x U Y 8 R Y 8 x x x B B R j R | ' R S =.,.Y ] m | ;.B B V B { B x J x B } R V 7.d.,.x x z h x q ; 8 ",
"                    - > q , z O.Y l j v x v J B j j l B T R B { T *.,.| R ] Y | Y B Y Y R J B l j B R ] R S d.R j 8 h h q , , z ",
"                  k , > q 2 x W B j B B x x R Y j x A R B B R Y Y Y =.S ] S S S ] B l w j j B B 8 j Y | B d *.Y 8 > , , , , : q ",
"                  t ; O ; , v W S B U B Y Y W R x v B } A l R ' S B Y B { R A l j Y Y l j B { x j v l B * d } U h 2 2 , ; , , q ",
"                  , : & & ; v W Y S l 8 { Y J U B A B A T B B { Y Y S A T } A B A } Y l 8 B } j v v l l d A *.v , 2 2 ; & ; ; ; ",
"                  , 3 < < ; v ] S B B v W B J R Y T { m S { B B Y ] ] Y A Y B U } R j B B B { Y U x B A B B } W > ; , ; ; : ; q ",
"                > ; < < , ; A =.S j | =.J j } ,.R B ,.Y B R m j B Y =.B B j B R B Y B R Y Y R Y R v B B m A W } h , 1 , , 1 , z ",
"                2 4 @ ; 2 8 T -.S m } ,.B j R { W B } } S B l B B B { v B j B Y B >.W A B S B v Y v B A B } Y U U 2 > 2 1 ; & , ",
"                3 < < < x l T S ] | { { { J x U R { { Y Y B j B Y Y Y B B B l v Y >.T Y } ,.B l >.v j Y B T A >.3.x 2 u z , & , "
};
