/* XPM */
static char *be080003080b41bbe8f3f816fa6410cckEpMNvUU6oZaKp2R[] = {
/* columns rows colors chars-per-pixel */
"64 64 148 2 ",
"   c #343334",
".  c #3A3A3B",
"X  c #101010",
"o  c #413F41",
"O  c #444344",
"+  c #474648",
"@  c #4C4C4C",
"#  c #504F51",
"$  c #535454",
"%  c #575857",
"&  c #585758",
"*  c #575858",
"=  c #5B5C5C",
"-  c #605F5F",
";  c #5F605F",
":  c #5F5F60",
">  c #605F60",
",  c #5F6160",
"<  c #636463",
"1  c #676867",
"2  c #686867",
"3  c #676768",
"4  c #686768",
"5  c #676968",
"6  c #6B6C6C",
"7  c #706F6F",
"8  c #6F706F",
"9  c #70706F",
"0  c #6F6F70",
"q  c #706F70",
"w  c #6F7170",
"e  c #747474",
"r  c #777877",
"t  c #777778",
"y  c #787778",
"u  c #777978",
"i  c #7B7C7B",
"p  c #807F7F",
"a  c #7F807F",
"s  c #7F7F80",
"d  c #807F80",
"f  c #7F8180",
"g  c #838484",
"h  c #888787",
"j  c #878887",
"k  c #878788",
"l  c #888788",
"z  c #878988",
"x  c #8C8B8C",
"c  c #908F8F",
"v  c #8F908F",
"b  c #8F8F90",
"n  c #908F90",
"m  c #8F9090",
"M  c #939394",
"N  c #989797",
"B  c #979897",
"V  c #989897",
"C  c #979798",
"Z  c #989798",
"A  c #9C9B9C",
"S  c #A09F9F",
"D  c #9FA09F",
"F  c #A0A09F",
"G  c #A09FA0",
"H  c #9FA0A0",
"J  c #A1A0A1",
"K  c #A2A1A2",
"L  c #A3A2A3",
"P  c #A3A3A4",
"I  c #A4A3A4",
"U  c #A5A4A5",
"Y  c #A5A6A5",
"T  c #A7A6A7",
"R  c #A3A3A3",
"E  c #A8A7A7",
"W  c #A8A7A7",
"Q  c #A7A8A7",
"!  c #A7A7A8",
"~  c #A8A7A8",
"^  c #A8A7A8",
"/  c #A8A8A8",
"(  c #AAA9AA",
")  c #ABAAAA",
"_  c #ACAAAB",
"`  c #ACABAC",
"'  c #ACACAC",
"]  c #ADAEAD",
"[  c #AFADAE",
"{  c #AFAEAE",
"}  c #ACABAC",
"|  c #B0AFAF",
" . c #AFB0AF",
".. c #B0B0AF",
"X. c #AFAFB0",
"o. c #B0AFB0",
"O. c #B2AFB1",
"+. c #B0AFB0",
"@. c #AFB0B0",
"#. c #B1B0B0",
"$. c #B2B1B1",
"%. c #B1B2B1",
"&. c #B2B1B2",
"*. c #B3B2B2",
"=. c #B4B3B4",
"-. c gray71",
";. c #B6B5B6",
":. c #B6B6B6",
">. c #B3B3B3",
",. c #B8B6B7",
"<. c #B7B8B7",
"1. c #B8B7B8",
"2. c #BBB9BB",
"3. c #BBBABA",
"4. c gray72",
"5. c #BDBEBD",
"6. c gray",
"7. c #BCBBBB",
"8. c #C0BFBF",
"9. c #C0BFBF",
"0. c #BFC0BF",
"q. c #C1BFC0",
"w. c #C1BFC0",
"e. c #BFC0C0",
"r. c #C3C2C3",
"t. c #C3C2C2",
"y. c #C5C3C4",
"u. c gray77",
"i. c #C5C4C5",
"p. c #C6C5C5",
"a. c #C7C6C7",
"s. c #C4C3C3",
"d. c #C8C6C7",
"f. c #C7C8C7",
"g. c #C8C7C8",
"h. c #C8C8C8",
"j. c #CDCBCD",
"k. c #CECCCD",
"l. c #CCCBCC",
"z. c #D0CECF",
"x. c #D0CED0",
"c. c #D4D3D3",
"v. c #D8D6D7",
"b. c #D9D7D9",
"n. c #DDDBDD",
"m. c #DDDCDC",
"M. c #E1DEE0",
"N. c #E2E0E1",
/* pixels */
"g x 4 < 1 A r i x ) u 1 6 6 t x x x u i x < w g t x A x g T V T C x _ M E J u + < = u T M t x V V t < g A J %.%.M x < @ o 6 e 6 ",
"x u i g t M x g g G i g x M e x M n i x ` x & $ u x G l e 8 M M ' M x A %.) J = O g %.V x A M g t g M ) ) V T %.x x 8.i $ = 6 6 ",
"g u e u x T x @ u < & 6 t M x 6 e t g V u.A e 6 % e x 6 V f & g x u < & M g 3 @ t 6 F o.| x = i x j % & u 1 t e & O 6 0 * i 1 e ",
"T M g g g A V g M V V g M %.=.x x -.h.k.j.t.J u.Z M ' 7.7.%.x x x f M x M g t i J q.M.N.j.n.3.%.-.M M g M M M V g M g 8 M J V J ",
"M i   O = x M 6 5 g x = t J ~ i @ 6 x V y.y.M g & 6 6 x G 6 t M r e i e 6 t 6 6 u I ' 3.-.) t M g w a w t x e e u < u 1 x e x M ",
"A g 1 q c Z V V x i M 6 e d g = ; ; 6 g =.T n e 6 = g t.%.P %.' u ) M o.) V e 6 i M ' ' t.u.3.J t u.) 6 u u.8.g x g x 6 @ $ < t ",
"3.J u 6 V A u & & < 6 e x i t % t i g x x & g 6 = & y A M u i < O 4 M J g x i g l g 3.T 3.I u V j ' M M V ' 6 e t 6 < e $ 6 < < ",
"3.A u t -.) V & 6 e & & g x j 6 M -.J ` M M M x M u V x V 6 e g f t ' 7.Q -.J 3.) =.7.-.3.J g 7.-.-.k.b.m.7.x o.g g t i V M J J ",
"g w g V J x M = ; & = < 1 t e 6 g M i g : t e 6 x 6 i 1 g = t u A g x %.) M e g x d M V = @ 6 i M M x o.u.x g A 6 M x e g i < 6 ",
"M x %.' ~ t z M a 6 ) %.) t.A u M x M g A M J V o.u.v.g < a V V ' t.t.o.3.T M J h.c.l.7.x g x x u.j.o.-.3.=.) M g h.%.' -.T x u ",
"i u x u J e 1 1 & 1 M g x ) 1 . = r i M g d t g J T %.x @ < ' A V V e g T g $ g M g g % t M 6 < x I r 1 g x u t M ) M g t 6 i < ",
", 5 = & u t x a t 7.T < 6 < ; 6 e 8 e 3.t.T u A A k x 7.| V -.%.J A A P ` ) T o.-.-.M i A ~ u g M t g g x x M k.k.J M V i A %.%.",
"& a 6 = g 6 e e e g & @ e = t e 1 x = e %.g = 6 x x x x x M M V V g = g A 7.g 6 t A x x g M e t e $ f 6 t < x 7.l g n u 0 l V g ",
"M M M J A u e M M e x ' P B x b g V g = w i J i M V C e 6 g i t 8 e i g u g g x Z J 7.' 1 e M x x A M g g V %.-.x u V i & @ 1 1 ",
"~ A A Z n 1 < 6 g g t M u 6 @ g V x t @ % < $ 6 i w < X & i 1 < t i < e & i x t % T ) M e t i 6 i u < j 6 6 T *.V e x t 1 1 = 6 ",
"n g M i g t i d M g 6 x t % 6 t g g u V x M e 1 g 6 < 6 g x g 1 i u i A g J %.T x i t u g x -.3.-.' g 7.' x = u g u e i x g 1 x ",
"= . < t 6 6 e e 6 t < e i g e M g i < g A T i % e g u g u i x i 6 6 t i i T g x t e g e u x ~ x V %.' ' 7.k.t e A M s 6 $ g u i ",
"g g g x g x 6 1 < i i u e u B t.%.,.T %.>.h.f.' x V x g i g @.%.-.3.-.J ' %.M i M M M x V J G I 3.v.m.-.7.z.7.i J J A x x ) ` J ",
"1 % 6 x w = < < = = 6 g r 6 1 T 7.x M V V J ) x e i 8 6 e u 3.g e x M i T V g g g 1 g i u x M A g %.<.x A 3.t $ i g a g q V J ) ",
"6 = ; 6 g x t t A x Z T T A V x -.) -.X.J g J M A G l x M M x e t i u 6 g M A I M x ) T A A T ' x g i 6 1 r < = g g g r 6 g g x ",
"1 6 6 1 t M & 1 n x T M M g & = g J t J x i T x i i t g x e @ 6 g 1 t < t i e x i u M M u 6 x J ) t e u < t 6 < y g < g x t i , ",
"t g x l M J J %.) J ' ' J R d u i i x V x M g r A x x g i ) %.J M g A u.3.x e t r r x x = < x M V M x Z A x u g T %.A M u e g e ",
"t 6 1 e t G V e g J M I M g 6 t g e 6 u g g 6 % g t y = = u 1 g i g T T ' 8 < e < < $ & & 6 t @ g u 6 1 x u e x %.%.T u g g u 6 ",
"x t g V V A I 1 t 6 5 g i e g x i x u u M A M M %.' V i M M g e u g = g %.T M ) x < 6 e 1 = = $ & < e 5 , < 6 A V A x = g i i x ",
"x 1 e g u i x t t 6 < ; 1 = M ` M i 4 q A M > t T M g < 8 g 4 e e f 6 e V x u J 6 1 6 6 6 & < < 1 u 1 6 < & i 5 1 x g < = 1 6 e ",
"t 6 # % + g ~ E g g i g V J %.3.J x x 6 u e V 7.-.T x M M V M t n %.I M V V u n g g = t i g ` V A T ) M A 3.3.x i g 6 i u x V t ",
"i t e 6 e x A x V t t x M G t u M i V y 1 < 6 x x i u g g x M < u u i i x 6 6 i 6 g 6 6 g u J x A x g i I %.) M i A x u g x x g ",
"i g x M ~ %.%.) %.J g 3.7.' ' x M M G Z n x g x e i x j < e u a a e M M t 6 l g g 3.=.3.J %.3.) 3.y.7.7.u.M M M M 3.=.%.-.A ) x ",
"g g > u g x T u C x t %.J V x e i < u g x x M g i M i x e t g 6 6 i g 6 x A A n x %.T x i x J ~ ' -.` | M t 6 1 i x M M u 1 n x ",
"' 4.M 7.u.-.%.I -.=.4.T M T M i x V i ) A x k V -.%.-.-.%.` ) ) T g ) 3.k.c.' %.u.' T M 7.3.' ' ' '  ._ V e = = g x g i u ) ' T ",
"x M V 7.D M g < x A A V V ' i 1 i i 6 A M M M M M M V J I V g d g < t g M A M ' x M x 8 x g x x t g M V t e 6 6 t 1 1 $ @ t ' M ",
"M M 7.o.J C -.) n T M A 7.t.%.G V 7.3.J M M T ) M V V G ) J A h.k.u.o.J T J ' %.T g e t e a x 7.T ~ I 3.V x V r.7.T J x V M J V ",
"u q x M x x M 6 e J V T %.M x M u x y 3 6 M M x t M V g x u 5 P V Q ' %.J J g M T g 6 6 t t g q.' A N T g i x M J V V V A M t y ",
"x J M u i V x g g T -.7.A u } %.) ) A T -.' T A J ) ) Z x A M M C M Z J A A x V ' M x %.' A Z A %._ J ) e.M x g f t x 3.*.%.V g ",
"i M = 6 r 1 & 6 i e t n 5 6 x V V x V M I M t g Z x x g g n n V M Z x M A x 6 x V g e J V A x i A x @ % g u < 6 6 6 t T %.t.%.t ",
"g g g e M g i V A M M M g M x V q 6 n g d g A x i M t g ) A g x x V x e x M 6 g x Z %.' A } ' ) M x A s G ! E V x g x J n M M x ",
"u t %.J ) ` 7.-.) ) 3.V V M M x 6 M u e x %.z.-.V 4.V G T T g V x T x 1 g x g j g g D =.T A J x g M g A 7.A ) ' M x x M Z M M A ",
"g t g 6 x J T x u < x 3.) F I ' J A g d M ' =.g x M j g x x x g M %.J M M g x b g A A ` ..M V g x V u M x x M V M x x g 3.) x t ",
"g f 6 M A M n i J i 6 T 4.M g x v M Z 8.%.d.7.g e 6 x g g J E V g i A J x x C g 6 x H A i M %.J T A x b g 6 i g i n < s x < V M ",
"t u x V x M x M M M g y i f e g %.J g M -._ x x x x b g i g t g x g i i g x g d x M Z M x T =.J l d g 8 g A x x o.) M x x M l Z ",
"i i e u g t g g T ) ) T = 1 6 x M G ` A A 6 g g f g u e e i u n A M t i x x t M h.k.t.%.g D T J -.) x u i T M g ' J 6 e -.A 1 k ",
"%.Q A x x u u 6 J ) M M t g t i t @ u g g M V t M A M x M T Z x M x t x g x n x A A ~ J 4 n g x A A J t t ) x g g g i x i 6 x A ",
"_ 3.V < A x i M t.J x A J g 5 i 6 = r x u J e @ 6 V M V ' M H A A A V M t A ) x i ) T %.V i e 2 6 u t e M g e 6 @ e 6 i t g ) A ",
"J J x A R g x M x 6 u j x 6 u i u i u x g h 6 Z e i ' A J T l i M a i x A Z x ) J %.M M g g A x M J M A ' l i g l M l M -.-.R -.",
"M x g H x e x A g < 6 = u g 6 e u g t i M x g n t i k t ' 7.i g u 6 g i t u e M x t x M M x g ) %.M x J x x t g i A x A g x l g ",
"M A -.' A V A -.%.' M 6 M J T M e V I %.i A M x %.X.u A %.) A ) T ' %.M V M V ,.%.7.r.u.g.u.%.) %.%.3.u.Z V u.%.T 7.t.j.%.A J 6 ",
"i M M i t u u x x %.) e J M x A M %.u.h.M A M A 7.H i %.} M A T ' %.7.D x A M x < 6 -.~ T ) x M A ' %.L g M R V x %.3.} V g 6 + ",
"V x M x & 6 e g g u t 6 e M g 6 i ) i g u e $ x v x J M g g J ' J M T G o.) + O 6 u x b h ~ _ 8.) %.j.3.r.| x M x T x g J T g < ",
"M L ' -.t B B ' g M h.' ' X.T M ' J & $ 1 6 i M J 4.7.' %.T 3.u.d.) <.e.-.7.M x ) t.7.%.k.b.x.3.k.t.R ' y.` ) 0.7.g x t.-.%.g M ",
"g & u e & w t A e @ g e V u 1 2 A g t 6 & e 6 g ) i J I d M t.k.w.M 6 g = g x x A T x & < g q i x g t t i g e M 6 & < = %.i 6 ) ",
"P ) ) A V M G A V g M g x M x x V M A x x ~ M g J I V M T c.u.0.l.t.A } J ) A i M M A V t a g M t e x x u t A ` -.' i M %.M A A ",
"x T T g g M M x x i x x M x M x M V M t g V M 1 x J V g g M A 3.0.A ) 3.8.7.V u 3.t.7.t.x r M u < e e 1 6 t u u M g < x Z T T J ",
"t u t t e e g t 6 x M r i g x l 6 u x 1 6 g u n J M M J M t M n T M M T G x i 6 t g M M e 6 u 6 % t e @ 6 l y 6 i 6 t g x i @ e ",
"g f M g.u.m G A g o.~ x M x M V e u M g i x M ' o.! J ' I M A T z.J ) T I x ~ A I M g x T x 6 ` J T T %.7.%.-.t.! N M x x e g M ",
"@ t M %.M M A M a x x t g t A M 6 e u i g 6 = i V ) g x u 1 g x J x G g i i i g M Z J g e t = g i i A A V g 6 u A x M M M i g e ",
"-.) %.y.M 6 e f g g x V M M A ) =.J x x x x -.3.T ~ A T A A A A J T J g < 6 6 = 6 ' M M M g g 6 t k M V x x g t -.t.I x ) T V ` ",
"x A ) ' j 1 6 6 g g V T V e 1 u i e t x x $ e A M g x J M A I Z t u x g 6 < @ O % i @ 6 x i t u h V x g g ) g $ u J M w 1 6 g g ",
"$ x M x x T M g i i M V a e < e x x M x x x x c i x S V g M A M 6 6 V ) o.~ x V >.M J T V M A J T ' T x x g j x V A ` f g M J g ",
"& 6 w 6 6 u 6 a A g x 6 x x i g i x M u x M -.T 6 u M g 6 u g x V ) M ) T g g J 4.M u t g g A M u e u V 7.V M A ' g g u g 6 e e ",
"1 @ @ = . 1 6 e = 6 6 t i e V x g V g @ @ = < @ . < < 5 = e x x $ t 1 @ & e 1 < e : 6 e 6 + 6 x e 6 e e g g M ' V x t $ & = @ @ ",
") M x V %.d.) u x V g ' Q e T u.A 6 1 g t i e n t     O % . @ u t M x = < E A i i 6 M E M %.%.p g A ) S x u 1 u T 3.A x u.-.' ' ",
") A M 6 6 g g t M x M I M J ` M v x i I A i J x g r 6 x M J 7.u.7.4.g % Z -.D c.v.z.J g V ' -.T M V ~ J t.t.J + 3 J V g A A j.-.",
"u.7.V i 1 O < $ x M M V V 6 6 6 % 6 x ` 1 1 < < n M i g A u.u.' ) a u u x %.N J k.k.u 1 x g u t u r i V A x M 6 = x x r e M ' B ",
"e 9 M u 6 = t @ 6 T J %.-.1 @ < O % g M 6 M u x o.J x i ) A x i x T ' E g T M e T ) a 6 e x A M x g g g g -.h.7.V t M x u x A i "
};
